<ttFont>
    <TTGlyph name=".notdef" xMin="50" yMin="0" xMax="450" yMax="707">
      <contour>
        <pt x="50" y="707" on="1"/>
        <pt x="450" y="707" on="1"/>
        <pt x="450" y="0" on="1"/>
        <pt x="50" y="0" on="1"/>
      </contour>
      <contour>
        <pt x="400" y="50" on="1"/>
        <pt x="400" y="657" on="1"/>
        <pt x="100" y="657" on="1"/>
        <pt x="100" y="50" on="1"/>
      </contour>
    </TTGlyph>
    <TTGlyph name="A" xMin="72" yMin="200" xMax="396" yMax="705">
      <contour>
        <pt x="278" y="455" on="1"/>
        <pt x="284" y="520" on="0"/>
        <pt x="284" y="552" on="1"/>
        <pt x="284" y="587" on="0"/>
        <pt x="268" y="609" on="0"/>
        <pt x="248" y="609" on="1"/>
        <pt x="233" y="609" on="0"/>
        <pt x="215" y="598" on="0"/>
        <pt x="202" y="565" on="0"/>
        <pt x="194" y="505" on="0"/>
        <pt x="189" y="455" on="1"/>
        <pt x="183" y="391" on="0"/>
        <pt x="183" y="358" on="1"/>
        <pt x="183" y="320" on="0"/>
        <pt x="200" y="296" on="0"/>
        <pt x="220" y="296" on="1"/>
        <pt x="235" y="296" on="0"/>
        <pt x="253" y="308" on="0"/>
        <pt x="265" y="342" on="0"/>
        <pt x="274" y="404" on="0"/>
      </contour>
      <contour>
        <pt x="393" y="459" on="1"/>
        <pt x="387" y="390" on="0"/>
        <pt x="366" y="292" on="0"/>
        <pt x="326" y="229" on="0"/>
        <pt x="262" y="200" on="0"/>
        <pt x="212" y="200" on="1"/>
        <pt x="136" y="200" on="0"/>
        <pt x="72" y="285" on="0"/>
        <pt x="72" y="381" on="1"/>
        <pt x="72" y="384" on="0"/>
        <pt x="73" y="406" on="0"/>
        <pt x="74" y="433" on="0"/>
        <pt x="76" y="456" on="0"/>
        <pt x="76" y="459" on="1"/>
        <pt x="82" y="525" on="0"/>
        <pt x="102" y="618" on="0"/>
        <pt x="143" y="678" on="0"/>
        <pt x="207" y="705" on="0"/>
        <pt x="256" y="705" on="1"/>
        <pt x="331" y="705" on="0"/>
        <pt x="396" y="622" on="0"/>
        <pt x="396" y="528" on="1"/>
        <pt x="396" y="497" on="0"/>
      </contour>
    </TTGlyph>
    <TTGlyph name="AE" xMin="61" yMin="244" xMax="222" yMax="374">
      <contour>
        <pt x="61" y="244" on="1"/>
        <pt x="72" y="374" on="1"/>
        <pt x="222" y="374" on="1"/>
        <pt x="211" y="244" on="1"/>
      </contour>
    </TTGlyph>
    <TTGlyph name="Aacute" xMin="61" yMin="244" xMax="222" yMax="374">
      <contour>
        <pt x="61" y="244" on="1"/>
        <pt x="72" y="374" on="1"/>
        <pt x="222" y="374" on="1"/>
        <pt x="211" y="244" on="1"/>
      </contour>
    </TTGlyph>
    <TTGlyph name="Acircumflex" xMin="61" yMin="244" xMax="222" yMax="374">
      <contour>
        <pt x="61" y="244" on="1"/>
        <pt x="72" y="374" on="1"/>
        <pt x="222" y="374" on="1"/>
        <pt x="211" y="244" on="1"/>
      </contour>
    </TTGlyph>
    <TTGlyph name="Adieresis" xMin="61" yMin="244" xMax="222" yMax="374">
      <contour>
        <pt x="61" y="244" on="1"/>
        <pt x="72" y="374" on="1"/>
        <pt x="222" y="374" on="1"/>
        <pt x="211" y="244" on="1"/>
      </contour>
    </TTGlyph>
    <TTGlyph name="Agrave" xMin="61" yMin="244" xMax="222" yMax="374">
      <contour>
        <pt x="61" y="244" on="1"/>
        <pt x="72" y="374" on="1"/>
        <pt x="222" y="374" on="1"/>
        <pt x="211" y="244" on="1"/>
      </contour>
    </TTGlyph>
    <TTGlyph name="Aring" xMin="61" yMin="244" xMax="222" yMax="374">
      <contour>
        <pt x="61" y="244" on="1"/>
        <pt x="72" y="374" on="1"/>
        <pt x="222" y="374" on="1"/>
        <pt x="211" y="244" on="1"/>
      </contour>
    </TTGlyph>
    <TTGlyph name="Atilde" xMin="61" yMin="244" xMax="222" yMax="374">
      <contour>
        <pt x="61" y="244" on="1"/>
        <pt x="72" y="374" on="1"/>
        <pt x="222" y="374" on="1"/>
        <pt x="211" y="244" on="1"/>
      </contour>
    </TTGlyph>
    <TTGlyph name="B" xMin="84" yMin="205" xMax="358" yMax="700">
      <contour>
        <pt x="84" y="205" on="1"/>
        <pt x="93" y="305" on="1"/>
        <pt x="176" y="305" on="1"/>
        <pt x="202" y="596" on="1"/>
        <pt x="107" y="557" on="1"/>
        <pt x="116" y="662" on="1"/>
        <pt x="203" y="700" on="1"/>
        <pt x="326" y="700" on="1"/>
        <pt x="291" y="305" on="1"/>
        <pt x="358" y="305" on="1"/>
        <pt x="349" y="205" on="1"/>
      </contour>
    </TTGlyph>
    <TTGlyph name="C" xMin="64" yMin="205" xMax="366" yMax="707">
      <contour>
        <pt x="64" y="205" on="1"/>
        <pt x="74" y="309" on="1"/>
        <pt x="186" y="433" on="1"/>
        <pt x="205" y="452" on="0"/>
        <pt x="230" y="484" on="0"/>
        <pt x="245" y="514" on="0"/>
        <pt x="251" y="546" on="0"/>
        <pt x="251" y="565" on="1"/>
        <pt x="251" y="582" on="0"/>
        <pt x="227" y="610" on="0"/>
        <pt x="195" y="610" on="1"/>
        <pt x="171" y="610" on="0"/>
        <pt x="130" y="603" on="0"/>
        <pt x="112" y="599" on="1"/>
        <pt x="120" y="696" on="1"/>
        <pt x="123" y="696" on="0"/>
        <pt x="145" y="700" on="0"/>
        <pt x="175" y="704" on="0"/>
        <pt x="208" y="707" on="0"/>
        <pt x="223" y="707" on="1"/>
        <pt x="289" y="707" on="0"/>
        <pt x="366" y="633" on="0"/>
        <pt x="366" y="568" on="1"/>
        <pt x="366" y="521" on="0"/>
        <pt x="337" y="440" on="0"/>
        <pt x="309" y="410" on="1"/>
        <pt x="210" y="303" on="1"/>
        <pt x="349" y="303" on="1"/>
        <pt x="340" y="205" on="1"/>
      </contour>
    </TTGlyph>
    <TTGlyph name="Ccedilla" xMin="61" yMin="244" xMax="222" yMax="374">
      <contour>
        <pt x="61" y="244" on="1"/>
        <pt x="72" y="374" on="1"/>
        <pt x="222" y="374" on="1"/>
        <pt x="211" y="244" on="1"/>
      </contour>
    </TTGlyph>
    <TTGlyph name="D" xMin="77" yMin="198" xMax="362" yMax="707">
      <contour>
        <pt x="353" y="381" on="1"/>
        <pt x="353" y="284" on="0"/>
        <pt x="267" y="198" on="0"/>
        <pt x="185" y="198" on="1"/>
        <pt x="171" y="198" on="0"/>
        <pt x="138" y="200" on="0"/>
        <pt x="107" y="203" on="0"/>
        <pt x="82" y="207" on="0"/>
        <pt x="77" y="208" on="1"/>
        <pt x="85" y="302" on="1"/>
        <pt x="99" y="299" on="0"/>
        <pt x="143" y="291" on="0"/>
        <pt x="168" y="291" on="1"/>
        <pt x="200" y="291" on="0"/>
        <pt x="237" y="328" on="0"/>
        <pt x="237" y="366" on="1"/>
        <pt x="237" y="424" on="0"/>
        <pt x="178" y="424" on="1"/>
        <pt x="135" y="424" on="1"/>
        <pt x="143" y="515" on="1"/>
        <pt x="179" y="515" on="1"/>
        <pt x="201" y="515" on="0"/>
        <pt x="228" y="525" on="0"/>
        <pt x="242" y="542" on="0"/>
        <pt x="247" y="564" on="0"/>
        <pt x="247" y="577" on="1"/>
        <pt x="247" y="614" on="0"/>
        <pt x="197" y="614" on="1"/>
        <pt x="176" y="614" on="0"/>
        <pt x="132" y="606" on="0"/>
        <pt x="115" y="602" on="1"/>
        <pt x="123" y="696" on="1"/>
        <pt x="126" y="697" on="0"/>
        <pt x="148" y="700" on="0"/>
        <pt x="177" y="704" on="0"/>
        <pt x="210" y="707" on="0"/>
        <pt x="225" y="707" on="1"/>
        <pt x="297" y="707" on="0"/>
        <pt x="362" y="652" on="0"/>
        <pt x="362" y="592" on="1"/>
        <pt x="362" y="576" on="0"/>
        <pt x="355" y="538" on="0"/>
        <pt x="338" y="504" on="0"/>
        <pt x="311" y="477" on="0"/>
        <pt x="290" y="472" on="1"/>
        <pt x="304" y="469" on="0"/>
        <pt x="327" y="449" on="0"/>
        <pt x="343" y="424" on="0"/>
        <pt x="353" y="395" on="0"/>
      </contour>
    </TTGlyph>
    <TTGlyph name="Delta" xMin="61" yMin="244" xMax="222" yMax="374">
      <contour>
        <pt x="61" y="244" on="1"/>
        <pt x="72" y="374" on="1"/>
        <pt x="222" y="374" on="1"/>
        <pt x="211" y="244" on="1"/>
      </contour>
    </TTGlyph>
    <TTGlyph name="E" xMin="74" yMin="205" xMax="385" yMax="700">
      <contour>
        <pt x="332" y="322" on="1"/>
        <pt x="321" y="205" on="1"/>
        <pt x="207" y="205" on="1"/>
        <pt x="218" y="322" on="1"/>
        <pt x="74" y="322" on="1"/>
        <pt x="83" y="426" on="1"/>
        <pt x="178" y="700" on="1"/>
        <pt x="288" y="700" on="1"/>
        <pt x="190" y="416" on="1"/>
        <pt x="228" y="416" on="1"/>
        <pt x="253" y="529" on="1"/>
        <pt x="350" y="529" on="1"/>
        <pt x="340" y="416" on="1"/>
        <pt x="385" y="416" on="1"/>
        <pt x="377" y="322" on="1"/>
      </contour>
    </TTGlyph>
    <TTGlyph name="Eacute" xMin="61" yMin="244" xMax="222" yMax="374">
      <contour>
        <pt x="61" y="244" on="1"/>
        <pt x="72" y="374" on="1"/>
        <pt x="222" y="374" on="1"/>
        <pt x="211" y="244" on="1"/>
      </contour>
    </TTGlyph>
    <TTGlyph name="Ecircumflex" xMin="61" yMin="244" xMax="222" yMax="374">
      <contour>
        <pt x="61" y="244" on="1"/>
        <pt x="72" y="374" on="1"/>
        <pt x="222" y="374" on="1"/>
        <pt x="211" y="244" on="1"/>
      </contour>
    </TTGlyph>
    <TTGlyph name="Edieresis" xMin="61" yMin="244" xMax="222" yMax="374">
      <contour>
        <pt x="61" y="244" on="1"/>
        <pt x="72" y="374" on="1"/>
        <pt x="222" y="374" on="1"/>
        <pt x="211" y="244" on="1"/>
      </contour>
    </TTGlyph>
    <TTGlyph name="Egrave" xMin="61" yMin="244" xMax="222" yMax="374">
      <contour>
        <pt x="61" y="244" on="1"/>
        <pt x="72" y="374" on="1"/>
        <pt x="222" y="374" on="1"/>
        <pt x="211" y="244" on="1"/>
      </contour>
    </TTGlyph>
    <TTGlyph name="Eth" xMin="61" yMin="244" xMax="222" yMax="374">
      <contour>
        <pt x="61" y="244" on="1"/>
        <pt x="72" y="374" on="1"/>
        <pt x="222" y="374" on="1"/>
        <pt x="211" y="244" on="1"/>
      </contour>
    </TTGlyph>
    <TTGlyph name="Euro" xMin="61" yMin="244" xMax="222" yMax="374">
      <contour>
        <pt x="61" y="244" on="1"/>
        <pt x="72" y="374" on="1"/>
        <pt x="222" y="374" on="1"/>
        <pt x="211" y="244" on="1"/>
      </contour>
    </TTGlyph>
    <TTGlyph name="F" xMin="84" yMin="198" xMax="363" yMax="700">
      <contour>
        <pt x="235" y="603" on="1"/>
        <pt x="228" y="521" on="1"/>
        <pt x="237" y="521" on="1"/>
        <pt x="272" y="521" on="0"/>
        <pt x="319" y="505" on="0"/>
        <pt x="346" y="475" on="0"/>
        <pt x="357" y="431" on="0"/>
        <pt x="357" y="403" on="1"/>
        <pt x="357" y="342" on="0"/>
        <pt x="333" y="263" on="0"/>
        <pt x="291" y="216" on="0"/>
        <pt x="232" y="198" on="0"/>
        <pt x="197" y="198" on="1"/>
        <pt x="182" y="198" on="0"/>
        <pt x="149" y="200" on="0"/>
        <pt x="118" y="203" on="0"/>
        <pt x="92" y="207" on="0"/>
        <pt x="84" y="208" on="1"/>
        <pt x="92" y="305" on="1"/>
        <pt x="102" y="303" on="0"/>
        <pt x="153" y="295" on="0"/>
        <pt x="185" y="295" on="1"/>
        <pt x="217" y="295" on="0"/>
        <pt x="241" y="348" on="0"/>
        <pt x="241" y="382" on="1"/>
        <pt x="241" y="407" on="0"/>
        <pt x="221" y="428" on="0"/>
        <pt x="190" y="428" on="1"/>
        <pt x="110" y="428" on="1"/>
        <pt x="134" y="700" on="1"/>
        <pt x="363" y="700" on="1"/>
        <pt x="354" y="603" on="1"/>
      </contour>
    </TTGlyph>
    <TTGlyph name="G" xMin="76" yMin="198" xMax="381" yMax="707">
      <contour>
        <pt x="379" y="363" on="1"/>
        <pt x="371" y="275" on="0"/>
        <pt x="283" y="198" on="0"/>
        <pt x="210" y="198" on="1"/>
        <pt x="179" y="198" on="0"/>
        <pt x="129" y="212" on="0"/>
        <pt x="94" y="252" on="0"/>
        <pt x="76" y="324" on="0"/>
        <pt x="76" y="383" on="1"/>
        <pt x="76" y="487" on="0"/>
        <pt x="105" y="615" on="0"/>
        <pt x="158" y="684" on="0"/>
        <pt x="232" y="707" on="0"/>
        <pt x="277" y="707" on="1"/>
        <pt x="310" y="707" on="0"/>
        <pt x="359" y="700" on="0"/>
        <pt x="369" y="698" on="1"/>
        <pt x="360" y="604" on="1"/>
        <pt x="346" y="608" on="0"/>
        <pt x="308" y="615" on="0"/>
        <pt x="284" y="615" on="1"/>
        <pt x="265" y="615" on="0"/>
        <pt x="238" y="609" on="0"/>
        <pt x="219" y="590" on="0"/>
        <pt x="207" y="555" on="0"/>
        <pt x="202" y="527" on="1"/>
        <pt x="214" y="532" on="0"/>
        <pt x="242" y="539" on="0"/>
        <pt x="258" y="539" on="1"/>
        <pt x="322" y="539" on="0"/>
        <pt x="381" y="467" on="0"/>
        <pt x="381" y="398" on="1"/>
        <pt x="381" y="390" on="0"/>
        <pt x="380" y="372" on="0"/>
      </contour>
      <contour>
        <pt x="221" y="447" on="1"/>
        <pt x="206" y="447" on="0"/>
        <pt x="192" y="441" on="1"/>
        <pt x="189" y="410" on="0"/>
        <pt x="187" y="365" on="0"/>
        <pt x="187" y="349" on="1"/>
        <pt x="187" y="312" on="0"/>
        <pt x="203" y="292" on="0"/>
        <pt x="221" y="292" on="1"/>
        <pt x="236" y="292" on="0"/>
        <pt x="255" y="309" on="0"/>
        <pt x="264" y="337" on="0"/>
        <pt x="267" y="373" on="0"/>
        <pt x="267" y="392" on="1"/>
        <pt x="267" y="426" on="0"/>
        <pt x="247" y="447" on="0"/>
      </contour>
    </TTGlyph>
    <TTGlyph name="H" xMin="105" yMin="205" xMax="387" yMax="700">
      <contour>
        <pt x="222" y="205" on="1"/>
        <pt x="105" y="205" on="1"/>
        <pt x="266" y="605" on="1"/>
        <pt x="117" y="605" on="1"/>
        <pt x="126" y="700" on="1"/>
        <pt x="387" y="700" on="1"/>
        <pt x="377" y="589" on="1"/>
      </contour>
    </TTGlyph>
    <TTGlyph name="I" xMin="57" yMin="198" xMax="402" yMax="707">
      <contour>
        <pt x="279" y="366" on="1"/>
        <pt x="279" y="378" on="0"/>
        <pt x="273" y="399" on="0"/>
        <pt x="258" y="413" on="0"/>
        <pt x="231" y="421" on="0"/>
        <pt x="209" y="421" on="1"/>
        <pt x="187" y="404" on="0"/>
        <pt x="173" y="368" on="0"/>
        <pt x="173" y="334" on="1"/>
        <pt x="173" y="316" on="0"/>
        <pt x="193" y="290" on="0"/>
        <pt x="220" y="290" on="1"/>
        <pt x="240" y="290" on="0"/>
        <pt x="263" y="303" on="0"/>
        <pt x="275" y="325" on="0"/>
        <pt x="279" y="352" on="0"/>
      </contour>
      <contour>
        <pt x="288" y="569" on="1"/>
        <pt x="288" y="595" on="0"/>
        <pt x="269" y="615" on="0"/>
        <pt x="248" y="615" on="1"/>
        <pt x="224" y="615" on="0"/>
        <pt x="199" y="589" on="0"/>
        <pt x="199" y="554" on="1"/>
        <pt x="199" y="533" on="0"/>
        <pt x="219" y="505" on="0"/>
        <pt x="251" y="505" on="1"/>
        <pt x="268" y="513" on="0"/>
        <pt x="288" y="542" on="0"/>
      </contour>
      <contour>
        <pt x="393" y="373" on="1"/>
        <pt x="393" y="334" on="0"/>
        <pt x="372" y="270" on="0"/>
        <pt x="328" y="224" on="0"/>
        <pt x="260" y="198" on="0"/>
        <pt x="212" y="198" on="1"/>
        <pt x="129" y="198" on="0"/>
        <pt x="57" y="270" on="0"/>
        <pt x="57" y="332" on="1"/>
        <pt x="57" y="377" on="0"/>
        <pt x="95" y="444" on="0"/>
        <pt x="132" y="456" on="1"/>
        <pt x="109" y="467" on="0"/>
        <pt x="86" y="512" on="0"/>
        <pt x="86" y="544" on="1"/>
        <pt x="86" y="583" on="0"/>
        <pt x="104" y="643" on="0"/>
        <pt x="144" y="685" on="0"/>
        <pt x="209" y="707" on="0"/>
        <pt x="256" y="707" on="1"/>
        <pt x="331" y="707" on="0"/>
        <pt x="402" y="644" on="0"/>
        <pt x="402" y="583" on="1"/>
        <pt x="402" y="573" on="0"/>
        <pt x="397" y="540" on="0"/>
        <pt x="382" y="506" on="0"/>
        <pt x="356" y="477" on="0"/>
        <pt x="334" y="471" on="1"/>
        <pt x="363" y="463" on="0"/>
        <pt x="393" y="411" on="0"/>
      </contour>
    </TTGlyph>
    <TTGlyph name="Iacute" xMin="61" yMin="244" xMax="222" yMax="374">
      <contour>
        <pt x="61" y="244" on="1"/>
        <pt x="72" y="374" on="1"/>
        <pt x="222" y="374" on="1"/>
        <pt x="211" y="244" on="1"/>
      </contour>
    </TTGlyph>
    <TTGlyph name="Icircumflex" xMin="61" yMin="244" xMax="222" yMax="374">
      <contour>
        <pt x="61" y="244" on="1"/>
        <pt x="72" y="374" on="1"/>
        <pt x="222" y="374" on="1"/>
        <pt x="211" y="244" on="1"/>
      </contour>
    </TTGlyph>
    <TTGlyph name="Idieresis" xMin="61" yMin="244" xMax="222" yMax="374">
      <contour>
        <pt x="61" y="244" on="1"/>
        <pt x="72" y="374" on="1"/>
        <pt x="222" y="374" on="1"/>
        <pt x="211" y="244" on="1"/>
      </contour>
    </TTGlyph>
    <TTGlyph name="Igrave" xMin="61" yMin="244" xMax="222" yMax="374">
      <contour>
        <pt x="61" y="244" on="1"/>
        <pt x="72" y="374" on="1"/>
        <pt x="222" y="374" on="1"/>
        <pt x="211" y="244" on="1"/>
      </contour>
    </TTGlyph>
    <TTGlyph name="J" xMin="118" yMin="199" xMax="422" yMax="708">
      <contour>
        <pt x="120" y="549" on="1"/>
        <pt x="127" y="632" on="0"/>
        <pt x="220" y="708" on="0"/>
        <pt x="289" y="708" on="1"/>
        <pt x="322" y="708" on="0"/>
        <pt x="371" y="692" on="0"/>
        <pt x="405" y="652" on="0"/>
        <pt x="422" y="583" on="0"/>
        <pt x="422" y="530" on="1"/>
        <pt x="422" y="512" on="0"/>
        <pt x="420" y="472" on="0"/>
        <pt x="418" y="449" on="1"/>
        <pt x="411" y="367" on="0"/>
        <pt x="379" y="268" on="0"/>
        <pt x="329" y="215" on="0"/>
        <pt x="263" y="199" on="0"/>
        <pt x="222" y="199" on="1"/>
        <pt x="194" y="199" on="0"/>
        <pt x="147" y="205" on="0"/>
        <pt x="138" y="207" on="1"/>
        <pt x="146" y="301" on="1"/>
        <pt x="160" y="297" on="0"/>
        <pt x="195" y="291" on="0"/>
        <pt x="215" y="291" on="1"/>
        <pt x="234" y="291" on="0"/>
        <pt x="260" y="298" on="0"/>
        <pt x="279" y="317" on="0"/>
        <pt x="291" y="351" on="0"/>
        <pt x="295" y="379" on="1"/>
        <pt x="283" y="374" on="0"/>
        <pt x="256" y="368" on="0"/>
        <pt x="239" y="368" on="1"/>
        <pt x="176" y="368" on="0"/>
        <pt x="118" y="436" on="0"/>
        <pt x="118" y="508" on="1"/>
        <pt x="118" y="518" on="0"/>
        <pt x="119" y="538" on="0"/>
      </contour>
      <contour>
        <pt x="276" y="459" on="1"/>
        <pt x="289" y="459" on="0"/>
        <pt x="304" y="464" on="1"/>
        <pt x="306" y="494" on="0"/>
        <pt x="309" y="539" on="0"/>
        <pt x="309" y="556" on="1"/>
        <pt x="309" y="595" on="0"/>
        <pt x="294" y="614" on="0"/>
        <pt x="278" y="614" on="1"/>
        <pt x="263" y="614" on="0"/>
        <pt x="244" y="596" on="0"/>
        <pt x="233" y="568" on="0"/>
        <pt x="230" y="531" on="0"/>
        <pt x="230" y="512" on="1"/>
        <pt x="230" y="480" on="0"/>
        <pt x="251" y="459" on="0"/>
      </contour>
    </TTGlyph>
    <TTGlyph name="K" xMin="103" yMin="98" xMax="507" yMax="502">
      <contour>
        <pt x="220" y="300" on="1"/>
        <pt x="103" y="417" on="1"/>
        <pt x="188" y="502" on="1"/>
        <pt x="305" y="385" on="1"/>
        <pt x="422" y="502" on="1"/>
        <pt x="507" y="417" on="1"/>
        <pt x="390" y="300" on="1"/>
        <pt x="507" y="183" on="1"/>
        <pt x="422" y="98" on="1"/>
        <pt x="305" y="215" on="1"/>
        <pt x="188" y="98" on="1"/>
        <pt x="103" y="183" on="1"/>
      </contour>
    </TTGlyph>
    <TTGlyph name="L" xMin="76" yMin="-4" xMax="610" yMax="700">
      <contour>
        <pt x="509" y="585" on="1"/>
        <pt x="473" y="167" on="1"/>
        <pt x="472" y="158" on="0"/>
        <pt x="471" y="141" on="0"/>
        <pt x="471" y="139" on="1"/>
        <pt x="471" y="125" on="0"/>
        <pt x="484" y="110" on="0"/>
        <pt x="501" y="110" on="1"/>
        <pt x="509" y="110" on="0"/>
        <pt x="524" y="112" on="0"/>
        <pt x="528" y="113" on="1"/>
        <pt x="519" y="3" on="1"/>
        <pt x="508" y="1" on="0"/>
        <pt x="459" y="-4" on="0"/>
        <pt x="436" y="-4" on="1"/>
        <pt x="406" y="-4" on="0"/>
        <pt x="367" y="14" on="0"/>
        <pt x="344" y="45" on="0"/>
        <pt x="335" y="87" on="0"/>
        <pt x="335" y="111" on="1"/>
        <pt x="335" y="119" on="0"/>
        <pt x="336" y="144" on="0"/>
        <pt x="337" y="152" on="1"/>
        <pt x="375" y="585" on="1"/>
        <pt x="290" y="585" on="1"/>
        <pt x="239" y="0" on="1"/>
        <pt x="104" y="0" on="1"/>
        <pt x="155" y="585" on="1"/>
        <pt x="76" y="585" on="1"/>
        <pt x="86" y="700" on="1"/>
        <pt x="610" y="700" on="1"/>
        <pt x="600" y="585" on="1"/>
      </contour>
    </TTGlyph>
    <TTGlyph name="Lslash" xMin="61" yMin="244" xMax="222" yMax="374">
      <contour>
        <pt x="61" y="244" on="1"/>
        <pt x="72" y="374" on="1"/>
        <pt x="222" y="374" on="1"/>
        <pt x="211" y="244" on="1"/>
      </contour>
    </TTGlyph>
    <TTGlyph name="M" xMin="15" yMin="-170" xMax="465" yMax="700">
      <contour>
        <pt x="15" y="-170" on="1"/>
        <pt x="26" y="-36" on="1"/>
        <pt x="221" y="267" on="1"/>
        <pt x="92" y="565" on="1"/>
        <pt x="104" y="700" on="1"/>
        <pt x="465" y="700" on="1"/>
        <pt x="455" y="585" on="1"/>
        <pt x="232" y="585" on="1"/>
        <pt x="366" y="267" on="1"/>
        <pt x="161" y="-56" on="1"/>
        <pt x="410" y="-56" on="1"/>
        <pt x="400" y="-170" on="1"/>
      </contour>
    </TTGlyph>
    <TTGlyph name="N" xMin="51" yMin="156" xMax="714" yMax="504">
      <contour>
        <pt x="255" y="504" on="1"/>
        <pt x="289" y="504" on="0"/>
        <pt x="364" y="473" on="0"/>
        <pt x="387" y="439" on="1"/>
        <pt x="411" y="467" on="0"/>
        <pt x="483" y="504" on="0"/>
        <pt x="542" y="504" on="1"/>
        <pt x="630" y="504" on="0"/>
        <pt x="714" y="421" on="0"/>
        <pt x="714" y="352" on="1"/>
        <pt x="714" y="309" on="0"/>
        <pt x="694" y="237" on="0"/>
        <pt x="646" y="185" on="0"/>
        <pt x="568" y="156" on="0"/>
        <pt x="511" y="156" on="1"/>
        <pt x="476" y="156" on="0"/>
        <pt x="401" y="187" on="0"/>
        <pt x="378" y="220" on="1"/>
        <pt x="354" y="193" on="0"/>
        <pt x="282" y="156" on="0"/>
        <pt x="224" y="156" on="1"/>
        <pt x="136" y="156" on="0"/>
        <pt x="51" y="240" on="0"/>
        <pt x="51" y="309" on="1"/>
        <pt x="51" y="352" on="0"/>
        <pt x="72" y="423" on="0"/>
        <pt x="120" y="475" on="0"/>
        <pt x="198" y="504" on="0"/>
      </contour>
      <contour>
        <pt x="522" y="259" on="1"/>
        <pt x="550" y="259" on="0"/>
        <pt x="595" y="299" on="0"/>
        <pt x="595" y="341" on="1"/>
        <pt x="595" y="372" on="0"/>
        <pt x="559" y="401" on="0"/>
        <pt x="535" y="401" on="1"/>
        <pt x="499" y="401" on="0"/>
        <pt x="447" y="369" on="0"/>
        <pt x="442" y="320" on="1"/>
        <pt x="445" y="301" on="0"/>
        <pt x="463" y="278" on="0"/>
        <pt x="485" y="264" on="0"/>
        <pt x="510" y="259" on="0"/>
      </contour>
      <contour>
        <pt x="244" y="401" on="1"/>
        <pt x="231" y="401" on="0"/>
        <pt x="205" y="391" on="0"/>
        <pt x="184" y="372" on="0"/>
        <pt x="171" y="342" on="0"/>
        <pt x="171" y="322" on="1"/>
        <pt x="171" y="290" on="0"/>
        <pt x="207" y="259" on="0"/>
        <pt x="231" y="259" on="1"/>
        <pt x="267" y="259" on="0"/>
        <pt x="319" y="291" on="0"/>
        <pt x="323" y="340" on="1"/>
        <pt x="320" y="359" on="0"/>
        <pt x="303" y="383" on="0"/>
        <pt x="281" y="396" on="0"/>
        <pt x="256" y="401" on="0"/>
      </contour>
    </TTGlyph>
    <TTGlyph name="Ntilde" xMin="61" yMin="244" xMax="222" yMax="374">
      <contour>
        <pt x="61" y="244" on="1"/>
        <pt x="72" y="374" on="1"/>
        <pt x="222" y="374" on="1"/>
        <pt x="211" y="244" on="1"/>
      </contour>
    </TTGlyph>
    <TTGlyph name="O" xMin="73" yMin="118" xMax="560" yMax="630">
      <contour>
        <pt x="254" y="447" on="1"/>
        <pt x="73" y="320" on="1"/>
        <pt x="85" y="467" on="1"/>
        <pt x="337" y="630" on="1"/>
        <pt x="560" y="467" on="1"/>
        <pt x="548" y="322" on="1"/>
        <pt x="389" y="452" on="1"/>
        <pt x="360" y="118" on="1"/>
        <pt x="224" y="118" on="1"/>
      </contour>
    </TTGlyph>
    <TTGlyph name="OE" xMin="61" yMin="244" xMax="222" yMax="374">
      <contour>
        <pt x="61" y="244" on="1"/>
        <pt x="72" y="374" on="1"/>
        <pt x="222" y="374" on="1"/>
        <pt x="211" y="244" on="1"/>
      </contour>
    </TTGlyph>
    <TTGlyph name="Oacute" xMin="61" yMin="244" xMax="222" yMax="374">
      <contour>
        <pt x="61" y="244" on="1"/>
        <pt x="72" y="374" on="1"/>
        <pt x="222" y="374" on="1"/>
        <pt x="211" y="244" on="1"/>
      </contour>
    </TTGlyph>
    <TTGlyph name="Ocircumflex" xMin="61" yMin="244" xMax="222" yMax="374">
      <contour>
        <pt x="61" y="244" on="1"/>
        <pt x="72" y="374" on="1"/>
        <pt x="222" y="374" on="1"/>
        <pt x="211" y="244" on="1"/>
      </contour>
    </TTGlyph>
    <TTGlyph name="Odieresis" xMin="61" yMin="244" xMax="222" yMax="374">
      <contour>
        <pt x="61" y="244" on="1"/>
        <pt x="72" y="374" on="1"/>
        <pt x="222" y="374" on="1"/>
        <pt x="211" y="244" on="1"/>
      </contour>
    </TTGlyph>
    <TTGlyph name="Ograve" xMin="61" yMin="244" xMax="222" yMax="374">
      <contour>
        <pt x="61" y="244" on="1"/>
        <pt x="72" y="374" on="1"/>
        <pt x="222" y="374" on="1"/>
        <pt x="211" y="244" on="1"/>
      </contour>
    </TTGlyph>
    <TTGlyph name="Omega" xMin="61" yMin="244" xMax="222" yMax="374">
      <contour>
        <pt x="61" y="244" on="1"/>
        <pt x="72" y="374" on="1"/>
        <pt x="222" y="374" on="1"/>
        <pt x="211" y="244" on="1"/>
      </contour>
    </TTGlyph>
    <TTGlyph name="Oslash" xMin="61" yMin="244" xMax="222" yMax="374">
      <contour>
        <pt x="61" y="244" on="1"/>
        <pt x="72" y="374" on="1"/>
        <pt x="222" y="374" on="1"/>
        <pt x="211" y="244" on="1"/>
      </contour>
    </TTGlyph>
    <TTGlyph name="Otilde" xMin="61" yMin="244" xMax="222" yMax="374">
      <contour>
        <pt x="61" y="244" on="1"/>
        <pt x="72" y="374" on="1"/>
        <pt x="222" y="374" on="1"/>
        <pt x="211" y="244" on="1"/>
      </contour>
    </TTGlyph>
    <TTGlyph name="P" xMin="54" yMin="137" xMax="571" yMax="612">
      <contour>
        <pt x="390" y="438" on="1"/>
        <pt x="277" y="612" on="1"/>
        <pt x="429" y="612" on="1"/>
        <pt x="571" y="375" on="1"/>
        <pt x="387" y="137" on="1"/>
        <pt x="229" y="137" on="1"/>
        <pt x="373" y="312" on="1"/>
        <pt x="54" y="312" on="1"/>
        <pt x="65" y="438" on="1"/>
      </contour>
    </TTGlyph>
    <TTGlyph name="Q" xMin="79" yMin="147" xMax="541" yMax="608">
      <contour>
        <pt x="230" y="376" on="1"/>
        <pt x="177" y="164" on="1"/>
        <pt x="79" y="272" on="1"/>
        <pt x="156" y="555" on="1"/>
        <pt x="445" y="608" on="1"/>
        <pt x="541" y="502" on="1"/>
        <pt x="326" y="470" on="1"/>
        <pt x="536" y="239" on="1"/>
        <pt x="436" y="147" on="1"/>
      </contour>
    </TTGlyph>
    <TTGlyph name="R" xMin="75" yMin="148" xMax="539" yMax="608">
      <contour>
        <pt x="328" y="471" on="1"/>
        <pt x="117" y="502" on="1"/>
        <pt x="233" y="608" on="1"/>
        <pt x="511" y="556" on="1"/>
        <pt x="539" y="272" on="1"/>
        <pt x="422" y="165" on="1"/>
        <pt x="406" y="378" on="1"/>
        <pt x="159" y="148" on="1"/>
        <pt x="75" y="240" on="1"/>
      </contour>
    </TTGlyph>
    <TTGlyph name="S" xMin="80" yMin="0" xMax="741" yMax="700">
      <contour>
        <pt x="80" y="0" on="1"/>
        <pt x="141" y="700" on="1"/>
        <pt x="741" y="700" on="1"/>
        <pt x="680" y="0" on="1"/>
      </contour>
      <contour>
        <pt x="593" y="581" on="1"/>
        <pt x="267" y="581" on="1"/>
        <pt x="227" y="119" on="1"/>
        <pt x="553" y="119" on="1"/>
      </contour>
    </TTGlyph>
    <TTGlyph name="Scaron" xMin="61" yMin="244" xMax="222" yMax="374">
      <contour>
        <pt x="61" y="244" on="1"/>
        <pt x="72" y="374" on="1"/>
        <pt x="222" y="374" on="1"/>
        <pt x="211" y="244" on="1"/>
      </contour>
    </TTGlyph>
    <TTGlyph name="T" xMin="65" yMin="-170" xMax="754" yMax="850">
      <contour>
        <pt x="65" y="-170" on="1"/>
        <pt x="154" y="850" on="1"/>
        <pt x="754" y="850" on="1"/>
        <pt x="665" y="-170" on="1"/>
      </contour>
      <contour>
        <pt x="606" y="731" on="1"/>
        <pt x="280" y="731" on="1"/>
        <pt x="212" y="-51" on="1"/>
        <pt x="538" y="-51" on="1"/>
      </contour>
    </TTGlyph>
    <TTGlyph name="Thorn" xMin="61" yMin="244" xMax="222" yMax="374">
      <contour>
        <pt x="61" y="244" on="1"/>
        <pt x="72" y="374" on="1"/>
        <pt x="222" y="374" on="1"/>
        <pt x="211" y="244" on="1"/>
      </contour>
    </TTGlyph>
    <TTGlyph name="U" xMin="48" yMin="-10" xMax="521" yMax="710">
      <contour>
        <pt x="517" y="361" on="1"/>
        <pt x="507" y="249" on="0"/>
        <pt x="467" y="105" on="0"/>
        <pt x="402" y="22" on="0"/>
        <pt x="310" y="-10" on="0"/>
        <pt x="248" y="-10" on="1"/>
        <pt x="222" y="-10" on="0"/>
        <pt x="156" y="-7" on="0"/>
        <pt x="127" y="-5" on="1"/>
        <pt x="94" y="-2" on="0"/>
        <pt x="60" y="0" on="1"/>
        <pt x="88" y="325" on="1"/>
        <pt x="48" y="325" on="1"/>
        <pt x="58" y="440" on="1"/>
        <pt x="98" y="440" on="1"/>
        <pt x="121" y="700" on="1"/>
        <pt x="156" y="702" on="0"/>
        <pt x="189" y="705" on="1"/>
        <pt x="218" y="707" on="0"/>
        <pt x="278" y="710" on="0"/>
        <pt x="299" y="710" on="1"/>
        <pt x="349" y="710" on="0"/>
        <pt x="431" y="690" on="0"/>
        <pt x="489" y="634" on="0"/>
        <pt x="521" y="533" on="0"/>
        <pt x="521" y="452" on="1"/>
        <pt x="521" y="432" on="0"/>
        <pt x="519" y="386" on="0"/>
      </contour>
      <contour>
        <pt x="377" y="354" on="1"/>
        <pt x="383" y="425" on="0"/>
        <pt x="383" y="468" on="1"/>
        <pt x="383" y="509" on="0"/>
        <pt x="373" y="557" on="0"/>
        <pt x="355" y="582" on="0"/>
        <pt x="328" y="589" on="0"/>
        <pt x="310" y="589" on="1"/>
        <pt x="296" y="589" on="0"/>
        <pt x="273" y="588" on="0"/>
        <pt x="265" y="587" on="1"/>
        <pt x="255" y="586" on="0"/>
        <pt x="248" y="585" on="1"/>
        <pt x="235" y="440" on="1"/>
        <pt x="333" y="440" on="1"/>
        <pt x="323" y="325" on="1"/>
        <pt x="225" y="325" on="1"/>
        <pt x="207" y="115" on="1"/>
        <pt x="212" y="114" on="0"/>
        <pt x="221" y="113" on="1"/>
        <pt x="229" y="112" on="0"/>
        <pt x="251" y="111" on="0"/>
        <pt x="267" y="111" on="1"/>
        <pt x="290" y="111" on="0"/>
        <pt x="326" y="133" on="0"/>
        <pt x="353" y="188" on="0"/>
        <pt x="371" y="282" on="0"/>
      </contour>
    </TTGlyph>
    <TTGlyph name="Uacute" xMin="61" yMin="244" xMax="222" yMax="374">
      <contour>
        <pt x="61" y="244" on="1"/>
        <pt x="72" y="374" on="1"/>
        <pt x="222" y="374" on="1"/>
        <pt x="211" y="244" on="1"/>
      </contour>
    </TTGlyph>
    <TTGlyph name="Ucircumflex" xMin="61" yMin="244" xMax="222" yMax="374">
      <contour>
        <pt x="61" y="244" on="1"/>
        <pt x="72" y="374" on="1"/>
        <pt x="222" y="374" on="1"/>
        <pt x="211" y="244" on="1"/>
      </contour>
    </TTGlyph>
    <TTGlyph name="Udieresis" xMin="61" yMin="244" xMax="222" yMax="374">
      <contour>
        <pt x="61" y="244" on="1"/>
        <pt x="72" y="374" on="1"/>
        <pt x="222" y="374" on="1"/>
        <pt x="211" y="244" on="1"/>
      </contour>
    </TTGlyph>
    <TTGlyph name="Ugrave" xMin="61" yMin="244" xMax="222" yMax="374">
      <contour>
        <pt x="61" y="244" on="1"/>
        <pt x="72" y="374" on="1"/>
        <pt x="222" y="374" on="1"/>
        <pt x="211" y="244" on="1"/>
      </contour>
    </TTGlyph>
    <TTGlyph name="V" xMin="35" yMin="0" xMax="420" yMax="700">
      <contour>
        <pt x="70" y="0" on="1"/>
        <pt x="98" y="320" on="1"/>
        <pt x="35" y="290" on="1"/>
        <pt x="45" y="408" on="1"/>
        <pt x="108" y="439" on="1"/>
        <pt x="131" y="700" on="1"/>
        <pt x="268" y="700" on="1"/>
        <pt x="251" y="509" on="1"/>
        <pt x="343" y="555" on="1"/>
        <pt x="333" y="435" on="1"/>
        <pt x="241" y="390" on="1"/>
        <pt x="217" y="116" on="1"/>
        <pt x="420" y="116" on="1"/>
        <pt x="410" y="0" on="1"/>
      </contour>
    </TTGlyph>
    <TTGlyph name="W" xMin="60" yMin="0" xMax="508" yMax="700">
      <contour>
        <pt x="506" y="360" on="1"/>
        <pt x="500" y="294" on="0"/>
        <pt x="467" y="204" on="0"/>
        <pt x="408" y="148" on="0"/>
        <pt x="322" y="124" on="0"/>
        <pt x="264" y="124" on="1"/>
        <pt x="207" y="124" on="1"/>
        <pt x="197" y="0" on="1"/>
        <pt x="60" y="0" on="1"/>
        <pt x="121" y="700" on="1"/>
        <pt x="258" y="700" on="1"/>
        <pt x="248" y="592" on="1"/>
        <pt x="260" y="592" on="0"/>
        <pt x="283" y="593" on="0"/>
        <pt x="295" y="593" on="1"/>
        <pt x="353" y="593" on="0"/>
        <pt x="434" y="568" on="0"/>
        <pt x="485" y="519" on="0"/>
        <pt x="508" y="447" on="0"/>
        <pt x="508" y="401" on="1"/>
        <pt x="508" y="391" on="0"/>
        <pt x="507" y="371" on="0"/>
      </contour>
      <contour>
        <pt x="366" y="353" on="1"/>
        <pt x="367" y="363" on="0"/>
        <pt x="368" y="380" on="0"/>
        <pt x="368" y="388" on="1"/>
        <pt x="368" y="430" on="0"/>
        <pt x="339" y="473" on="0"/>
        <pt x="303" y="473" on="1"/>
        <pt x="271" y="473" on="0"/>
        <pt x="254" y="470" on="1"/>
        <pt x="244" y="468" on="0"/>
        <pt x="237" y="467" on="1"/>
        <pt x="218" y="242" on="1"/>
        <pt x="281" y="242" on="1"/>
        <pt x="316" y="242" on="0"/>
        <pt x="361" y="302" on="0"/>
      </contour>
    </TTGlyph>
    <TTGlyph name="X" xMin="21" yMin="-7" xMax="473" yMax="845">
      <contour>
        <pt x="247" y="845" on="1"/>
        <pt x="282" y="784" on="1"/>
        <pt x="327" y="845" on="1"/>
        <pt x="473" y="845" on="1"/>
        <pt x="353" y="730" on="1"/>
        <pt x="201" y="730" on="1"/>
        <pt x="100" y="845" on="1"/>
      </contour>
      <contour>
        <pt x="412" y="218" on="1"/>
        <pt x="405" y="146" on="0"/>
        <pt x="366" y="58" on="0"/>
        <pt x="302" y="10" on="0"/>
        <pt x="216" y="-7" on="0"/>
        <pt x="162" y="-7" on="1"/>
        <pt x="146" y="-7" on="0"/>
        <pt x="107" y="-5" on="0"/>
        <pt x="68" y="-1" on="0"/>
        <pt x="33" y="5" on="0"/>
        <pt x="21" y="8" on="1"/>
        <pt x="32" y="127" on="1"/>
        <pt x="43" y="124" on="0"/>
        <pt x="76" y="118" on="0"/>
        <pt x="112" y="114" on="0"/>
        <pt x="148" y="111" on="0"/>
        <pt x="162" y="111" on="1"/>
        <pt x="212" y="111" on="0"/>
        <pt x="273" y="162" on="0"/>
        <pt x="273" y="225" on="1"/>
        <pt x="273" y="266" on="0"/>
        <pt x="233" y="298" on="0"/>
        <pt x="196" y="307" on="1"/>
        <pt x="121" y="325" on="0"/>
        <pt x="58" y="409" on="0"/>
        <pt x="58" y="472" on="1"/>
        <pt x="58" y="478" on="0"/>
        <pt x="58" y="490" on="0"/>
        <pt x="59" y="496" on="1"/>
        <pt x="64" y="553" on="0"/>
        <pt x="97" y="634" on="0"/>
        <pt x="158" y="684" on="0"/>
        <pt x="250" y="707" on="0"/>
        <pt x="314" y="707" on="1"/>
        <pt x="328" y="707" on="0"/>
        <pt x="362" y="705" on="0"/>
        <pt x="396" y="701" on="0"/>
        <pt x="427" y="696" on="0"/>
        <pt x="437" y="693" on="1"/>
        <pt x="427" y="574" on="1"/>
        <pt x="401" y="582" on="0"/>
        <pt x="332" y="589" on="0"/>
        <pt x="294" y="589" on="1"/>
        <pt x="246" y="589" on="0"/>
        <pt x="198" y="541" on="0"/>
        <pt x="198" y="487" on="1"/>
        <pt x="198" y="458" on="0"/>
        <pt x="229" y="433" on="0"/>
        <pt x="270" y="424" on="1"/>
        <pt x="302" y="417" on="0"/>
        <pt x="355" y="391" on="0"/>
        <pt x="393" y="350" on="0"/>
        <pt x="414" y="292" on="0"/>
        <pt x="414" y="252" on="1"/>
        <pt x="414" y="244" on="0"/>
        <pt x="413" y="227" on="0"/>
      </contour>
    </TTGlyph>
    <TTGlyph name="Y" xMin="61" yMin="0" xMax="572" yMax="841">
      <contour>
        <pt x="249" y="726" on="1"/>
        <pt x="363" y="841" on="1"/>
        <pt x="524" y="841" on="1"/>
        <pt x="362" y="726" on="1"/>
      </contour>
      <contour>
        <pt x="350" y="308" on="1"/>
        <pt x="324" y="0" on="1"/>
        <pt x="184" y="0" on="1"/>
        <pt x="210" y="308" on="1"/>
        <pt x="61" y="700" on="1"/>
        <pt x="206" y="700" on="1"/>
        <pt x="293" y="430" on="1"/>
        <pt x="428" y="700" on="1"/>
        <pt x="572" y="700" on="1"/>
      </contour>
    </TTGlyph>
    <TTGlyph name="Yacute" xMin="61" yMin="244" xMax="222" yMax="374">
      <contour>
        <pt x="61" y="244" on="1"/>
        <pt x="72" y="374" on="1"/>
        <pt x="222" y="374" on="1"/>
        <pt x="211" y="244" on="1"/>
      </contour>
    </TTGlyph>
    <TTGlyph name="Ydieresis" xMin="61" yMin="244" xMax="222" yMax="374">
      <contour>
        <pt x="61" y="244" on="1"/>
        <pt x="72" y="374" on="1"/>
        <pt x="222" y="374" on="1"/>
        <pt x="211" y="244" on="1"/>
      </contour>
    </TTGlyph>
    <TTGlyph name="Z" xMin="25" yMin="0" xMax="496" yMax="845">
      <contour>
        <pt x="270" y="845" on="1"/>
        <pt x="305" y="784" on="1"/>
        <pt x="350" y="845" on="1"/>
        <pt x="496" y="845" on="1"/>
        <pt x="376" y="730" on="1"/>
        <pt x="224" y="730" on="1"/>
        <pt x="123" y="845" on="1"/>
      </contour>
      <contour>
        <pt x="187" y="119" on="1"/>
        <pt x="421" y="119" on="1"/>
        <pt x="411" y="0" on="1"/>
        <pt x="25" y="0" on="1"/>
        <pt x="36" y="133" on="1"/>
        <pt x="320" y="581" on="1"/>
        <pt x="98" y="581" on="1"/>
        <pt x="109" y="700" on="1"/>
        <pt x="482" y="700" on="1"/>
        <pt x="470" y="567" on="1"/>
      </contour>
    </TTGlyph>
    <TTGlyph name="Zcaron" xMin="61" yMin="244" xMax="222" yMax="374">
      <contour>
        <pt x="61" y="244" on="1"/>
        <pt x="72" y="374" on="1"/>
        <pt x="222" y="374" on="1"/>
        <pt x="211" y="244" on="1"/>
      </contour>
    </TTGlyph>
    <TTGlyph name="a" xMin="84" yMin="0" xMax="358" yMax="495">
      <contour>
        <pt x="84" y="0" on="1"/>
        <pt x="93" y="100" on="1"/>
        <pt x="176" y="100" on="1"/>
        <pt x="202" y="391" on="1"/>
        <pt x="107" y="352" on="1"/>
        <pt x="116" y="457" on="1"/>
        <pt x="203" y="495" on="1"/>
        <pt x="326" y="495" on="1"/>
        <pt x="291" y="100" on="1"/>
        <pt x="358" y="100" on="1"/>
        <pt x="349" y="0" on="1"/>
      </contour>
    </TTGlyph>
    <TTGlyph name="aacute" xMin="61" yMin="244" xMax="222" yMax="374">
      <contour>
        <pt x="61" y="244" on="1"/>
        <pt x="72" y="374" on="1"/>
        <pt x="222" y="374" on="1"/>
        <pt x="211" y="244" on="1"/>
      </contour>
    </TTGlyph>
    <TTGlyph name="acircumflex" xMin="61" yMin="244" xMax="222" yMax="374">
      <contour>
        <pt x="61" y="244" on="1"/>
        <pt x="72" y="374" on="1"/>
        <pt x="222" y="374" on="1"/>
        <pt x="211" y="244" on="1"/>
      </contour>
    </TTGlyph>
    <TTGlyph name="acute" xMin="61" yMin="244" xMax="222" yMax="374">
      <contour>
        <pt x="61" y="244" on="1"/>
        <pt x="72" y="374" on="1"/>
        <pt x="222" y="374" on="1"/>
        <pt x="211" y="244" on="1"/>
      </contour>
    </TTGlyph>
    <TTGlyph name="adieresis" xMin="61" yMin="244" xMax="222" yMax="374">
      <contour>
        <pt x="61" y="244" on="1"/>
        <pt x="72" y="374" on="1"/>
        <pt x="222" y="374" on="1"/>
        <pt x="211" y="244" on="1"/>
      </contour>
    </TTGlyph>
    <TTGlyph name="ae" xMin="61" yMin="244" xMax="222" yMax="374">
      <contour>
        <pt x="61" y="244" on="1"/>
        <pt x="72" y="374" on="1"/>
        <pt x="222" y="374" on="1"/>
        <pt x="211" y="244" on="1"/>
      </contour>
    </TTGlyph>
    <TTGlyph name="agrave" xMin="61" yMin="244" xMax="222" yMax="374">
      <contour>
        <pt x="61" y="244" on="1"/>
        <pt x="72" y="374" on="1"/>
        <pt x="222" y="374" on="1"/>
        <pt x="211" y="244" on="1"/>
      </contour>
    </TTGlyph>
    <TTGlyph name="ampersand" xMin="32" yMin="-200" xMax="185" yMax="-85">
      <contour>
        <pt x="185" y="-85" on="1"/>
        <pt x="175" y="-200" on="1"/>
        <pt x="32" y="-200" on="1"/>
        <pt x="42" y="-85" on="1"/>
      </contour>
    </TTGlyph>
    <TTGlyph name="approxequal" xMin="61" yMin="244" xMax="222" yMax="374">
      <contour>
        <pt x="61" y="244" on="1"/>
        <pt x="72" y="374" on="1"/>
        <pt x="222" y="374" on="1"/>
        <pt x="211" y="244" on="1"/>
      </contour>
    </TTGlyph>
    <TTGlyph name="aring" xMin="61" yMin="244" xMax="222" yMax="374">
      <contour>
        <pt x="61" y="244" on="1"/>
        <pt x="72" y="374" on="1"/>
        <pt x="222" y="374" on="1"/>
        <pt x="211" y="244" on="1"/>
      </contour>
    </TTGlyph>
    <TTGlyph name="asciicircum" xMin="-45" yMin="-177" xMax="814" yMax="709">
      <contour>
        <pt x="805" y="3" on="1"/>
        <pt x="794" y="1" on="0"/>
        <pt x="742" y="-5" on="0"/>
        <pt x="713" y="-5" on="1"/>
        <pt x="656" y="-5" on="0"/>
        <pt x="615" y="47" on="0"/>
        <pt x="615" y="101" on="1"/>
        <pt x="615" y="112" on="0"/>
        <pt x="616" y="135" on="0"/>
        <pt x="617" y="148" on="1"/>
        <pt x="638" y="387" on="1"/>
        <pt x="517" y="387" on="1"/>
        <pt x="482" y="-13" on="1"/>
        <pt x="478" y="-63" on="0"/>
        <pt x="455" y="-126" on="0"/>
        <pt x="413" y="-163" on="0"/>
        <pt x="351" y="-177" on="0"/>
        <pt x="309" y="-177" on="1"/>
        <pt x="293" y="-177" on="0"/>
        <pt x="265" y="-174" on="0"/>
        <pt x="245" y="-172" on="1"/>
        <pt x="255" y="-59" on="1"/>
        <pt x="268" y="-61" on="0"/>
        <pt x="293" y="-63" on="0"/>
        <pt x="297" y="-63" on="1"/>
        <pt x="324" y="-63" on="0"/>
        <pt x="346" y="-44" on="0"/>
        <pt x="348" y="-18" on="1"/>
        <pt x="383" y="387" on="1"/>
        <pt x="247" y="387" on="1"/>
        <pt x="212" y="-13" on="1"/>
        <pt x="208" y="-63" on="0"/>
        <pt x="185" y="-126" on="0"/>
        <pt x="143" y="-163" on="0"/>
        <pt x="81" y="-177" on="0"/>
        <pt x="39" y="-177" on="1"/>
        <pt x="16" y="-177" on="0"/>
        <pt x="-25" y="-174" on="0"/>
        <pt x="-45" y="-172" on="1"/>
        <pt x="-35" y="-59" on="1"/>
        <pt x="-22" y="-61" on="0"/>
        <pt x="16" y="-63" on="0"/>
        <pt x="27" y="-63" on="1"/>
        <pt x="54" y="-63" on="0"/>
        <pt x="76" y="-44" on="0"/>
        <pt x="78" y="-18" on="1"/>
        <pt x="113" y="387" on="1"/>
        <pt x="48" y="387" on="1"/>
        <pt x="58" y="500" on="1"/>
        <pt x="123" y="500" on="1"/>
        <pt x="125" y="520" on="1"/>
        <pt x="130" y="571" on="0"/>
        <pt x="155" y="637" on="0"/>
        <pt x="200" y="675" on="0"/>
        <pt x="265" y="689" on="0"/>
        <pt x="311" y="689" on="1"/>
        <pt x="349" y="689" on="0"/>
        <pt x="423" y="682" on="0"/>
        <pt x="449" y="678" on="1"/>
        <pt x="472" y="696" on="0"/>
        <pt x="537" y="709" on="0"/>
        <pt x="583" y="709" on="1"/>
        <pt x="615" y="709" on="0"/>
        <pt x="652" y="704" on="0"/>
        <pt x="666" y="700" on="1"/>
        <pt x="799" y="700" on="1"/>
        <pt x="753" y="176" on="1"/>
        <pt x="750" y="146" on="0"/>
        <pt x="750" y="139" on="1"/>
        <pt x="750" y="123" on="0"/>
        <pt x="762" y="110" on="0"/>
        <pt x="778" y="110" on="1"/>
        <pt x="789" y="110" on="0"/>
        <pt x="810" y="113" on="0"/>
        <pt x="814" y="114" on="1"/>
      </contour>
      <contour>
        <pt x="527" y="500" on="1"/>
        <pt x="648" y="500" on="1"/>
        <pt x="656" y="592" on="1"/>
        <pt x="629" y="595" on="0"/>
        <pt x="598" y="595" on="1"/>
        <pt x="576" y="595" on="0"/>
        <pt x="550" y="589" on="0"/>
        <pt x="536" y="578" on="0"/>
        <pt x="532" y="561" on="0"/>
        <pt x="531" y="549" on="1"/>
      </contour>
      <contour>
        <pt x="397" y="544" on="1"/>
        <pt x="398" y="552" on="0"/>
        <pt x="399" y="567" on="0"/>
        <pt x="401" y="575" on="1"/>
        <pt x="384" y="577" on="0"/>
        <pt x="346" y="579" on="0"/>
        <pt x="326" y="579" on="1"/>
        <pt x="304" y="579" on="0"/>
        <pt x="278" y="573" on="0"/>
        <pt x="264" y="562" on="0"/>
        <pt x="260" y="545" on="0"/>
        <pt x="259" y="533" on="1"/>
        <pt x="257" y="500" on="1"/>
        <pt x="393" y="500" on="1"/>
        <pt x="397" y="544" on="1"/>
      </contour>
    </TTGlyph>
    <TTGlyph name="asciitilde" xMin="84" yMin="151" xMax="636" yMax="514">
      <contour>
        <pt x="362" y="151" on="1"/>
        <pt x="373" y="275" on="1"/>
        <pt x="84" y="275" on="1"/>
        <pt x="94" y="390" on="1"/>
        <pt x="383" y="390" on="1"/>
        <pt x="393" y="514" on="1"/>
        <pt x="636" y="333" on="1"/>
      </contour>
    </TTGlyph>
    <TTGlyph name="asterisk" xMin="67" yMin="598" xMax="548" yMax="745">
      <contour>
        <pt x="173" y="598" on="1"/>
        <pt x="67" y="598" on="1"/>
        <pt x="183" y="745" on="1"/>
        <pt x="353" y="745" on="1"/>
      </contour>
      <contour>
        <pt x="368" y="598" on="1"/>
        <pt x="262" y="598" on="1"/>
        <pt x="378" y="745" on="1"/>
        <pt x="548" y="745" on="1"/>
      </contour>
    </TTGlyph>
    <TTGlyph name="at" xMin="90" yMin="-9" xMax="760" yMax="709">
      <contour>
        <pt x="760" y="350" on="1"/>
        <pt x="760" y="267" on="0"/>
        <pt x="728" y="134" on="0"/>
        <pt x="652" y="41" on="0"/>
        <pt x="525" y="-9" on="0"/>
        <pt x="430" y="-9" on="1"/>
        <pt x="335" y="-9" on="0"/>
        <pt x="205" y="40" on="0"/>
        <pt x="125" y="132" on="0"/>
        <pt x="90" y="265" on="0"/>
        <pt x="90" y="350" on="1"/>
        <pt x="90" y="433" on="0"/>
        <pt x="125" y="566" on="0"/>
        <pt x="206" y="659" on="0"/>
        <pt x="336" y="709" on="0"/>
        <pt x="430" y="709" on="1"/>
        <pt x="525" y="709" on="0"/>
        <pt x="651" y="659" on="0"/>
        <pt x="728" y="565" on="0"/>
        <pt x="760" y="433" on="0"/>
      </contour>
      <contour>
        <pt x="643" y="350" on="1"/>
        <pt x="643" y="416" on="0"/>
        <pt x="630" y="514" on="0"/>
        <pt x="586" y="579" on="0"/>
        <pt x="501" y="611" on="0"/>
        <pt x="430" y="611" on="1"/>
        <pt x="359" y="611" on="0"/>
        <pt x="271" y="580" on="0"/>
        <pt x="223" y="515" on="0"/>
        <pt x="207" y="417" on="0"/>
        <pt x="207" y="350" on="1"/>
        <pt x="207" y="284" on="0"/>
        <pt x="223" y="185" on="0"/>
        <pt x="271" y="121" on="0"/>
        <pt x="359" y="89" on="0"/>
        <pt x="430" y="89" on="1"/>
        <pt x="501" y="89" on="0"/>
        <pt x="586" y="121" on="0"/>
        <pt x="630" y="186" on="0"/>
        <pt x="643" y="284" on="0"/>
      </contour>
      <contour>
        <pt x="475" y="423" on="1"/>
        <pt x="475" y="453" on="0"/>
        <pt x="461" y="478" on="0"/>
        <pt x="434" y="478" on="1"/>
        <pt x="432" y="478" on="0"/>
        <pt x="425" y="478" on="0"/>
        <pt x="421" y="477" on="1"/>
        <pt x="417" y="476" on="0"/>
        <pt x="413" y="476" on="1"/>
        <pt x="413" y="370" on="1"/>
        <pt x="427" y="370" on="1"/>
        <pt x="454" y="370" on="0"/>
        <pt x="475" y="391" on="0"/>
      </contour>
      <contour>
        <pt x="560" y="425" on="1"/>
        <pt x="560" y="390" on="0"/>
        <pt x="542" y="341" on="0"/>
        <pt x="511" y="311" on="0"/>
        <pt x="468" y="298" on="0"/>
        <pt x="442" y="298" on="1"/>
        <pt x="413" y="298" on="1"/>
        <pt x="413" y="159" on="1"/>
        <pt x="330" y="159" on="1"/>
        <pt x="330" y="544" on="1"/>
        <pt x="349" y="545" on="0"/>
        <pt x="368" y="546" on="1"/>
        <pt x="385" y="547" on="0"/>
        <pt x="423" y="548" on="0"/>
        <pt x="440" y="548" on="1"/>
        <pt x="475" y="548" on="0"/>
        <pt x="521" y="530" on="0"/>
        <pt x="549" y="498" on="0"/>
        <pt x="560" y="452" on="0"/>
      </contour>
    </TTGlyph>
    <TTGlyph name="atilde" xMin="61" yMin="244" xMax="222" yMax="374">
      <contour>
        <pt x="61" y="244" on="1"/>
        <pt x="72" y="374" on="1"/>
        <pt x="222" y="374" on="1"/>
        <pt x="211" y="244" on="1"/>
      </contour>
    </TTGlyph>
    <TTGlyph name="b" xMin="64" yMin="0" xMax="366" yMax="502">
      <contour>
        <pt x="64" y="0" on="1"/>
        <pt x="74" y="104" on="1"/>
        <pt x="186" y="228" on="1"/>
        <pt x="205" y="247" on="0"/>
        <pt x="230" y="279" on="0"/>
        <pt x="245" y="309" on="0"/>
        <pt x="251" y="341" on="0"/>
        <pt x="251" y="360" on="1"/>
        <pt x="251" y="377" on="0"/>
        <pt x="227" y="405" on="0"/>
        <pt x="195" y="405" on="1"/>
        <pt x="171" y="405" on="0"/>
        <pt x="130" y="398" on="0"/>
        <pt x="112" y="394" on="1"/>
        <pt x="120" y="491" on="1"/>
        <pt x="123" y="491" on="0"/>
        <pt x="145" y="495" on="0"/>
        <pt x="175" y="499" on="0"/>
        <pt x="208" y="502" on="0"/>
        <pt x="223" y="502" on="1"/>
        <pt x="289" y="502" on="0"/>
        <pt x="366" y="428" on="0"/>
        <pt x="366" y="363" on="1"/>
        <pt x="366" y="316" on="0"/>
        <pt x="337" y="235" on="0"/>
        <pt x="309" y="205" on="1"/>
        <pt x="210" y="98" on="1"/>
        <pt x="349" y="98" on="1"/>
        <pt x="340" y="0" on="1"/>
      </contour>
    </TTGlyph>
    <TTGlyph name="backslash" xMin="-45" yMin="-177" xMax="781" yMax="709">
      <contour>
        <pt x="113" y="387" on="1"/>
        <pt x="48" y="387" on="1"/>
        <pt x="58" y="500" on="1"/>
        <pt x="123" y="500" on="1"/>
        <pt x="125" y="520" on="1"/>
        <pt x="130" y="571" on="0"/>
        <pt x="155" y="637" on="0"/>
        <pt x="200" y="675" on="0"/>
        <pt x="265" y="689" on="0"/>
        <pt x="311" y="689" on="1"/>
        <pt x="349" y="689" on="0"/>
        <pt x="423" y="682" on="0"/>
        <pt x="449" y="678" on="1"/>
        <pt x="472" y="696" on="0"/>
        <pt x="537" y="709" on="0"/>
        <pt x="583" y="709" on="1"/>
        <pt x="613" y="709" on="0"/>
        <pt x="670" y="705" on="0"/>
        <pt x="719" y="699" on="0"/>
        <pt x="754" y="693" on="0"/>
        <pt x="761" y="691" on="1"/>
        <pt x="751" y="578" on="1"/>
        <pt x="735" y="582" on="0"/>
        <pt x="652" y="595" on="0"/>
        <pt x="598" y="595" on="1"/>
        <pt x="576" y="595" on="0"/>
        <pt x="550" y="589" on="0"/>
        <pt x="536" y="578" on="0"/>
        <pt x="532" y="561" on="0"/>
        <pt x="531" y="549" on="1"/>
        <pt x="527" y="500" on="1"/>
        <pt x="781" y="500" on="1"/>
        <pt x="738" y="0" on="1"/>
        <pt x="605" y="0" on="1"/>
        <pt x="638" y="387" on="1"/>
        <pt x="517" y="387" on="1"/>
        <pt x="482" y="-13" on="1"/>
        <pt x="478" y="-63" on="0"/>
        <pt x="455" y="-126" on="0"/>
        <pt x="413" y="-163" on="0"/>
        <pt x="351" y="-177" on="0"/>
        <pt x="309" y="-177" on="1"/>
        <pt x="293" y="-177" on="0"/>
        <pt x="265" y="-174" on="0"/>
        <pt x="245" y="-172" on="1"/>
        <pt x="255" y="-59" on="1"/>
        <pt x="268" y="-61" on="0"/>
        <pt x="293" y="-63" on="0"/>
        <pt x="297" y="-63" on="1"/>
        <pt x="324" y="-63" on="0"/>
        <pt x="346" y="-44" on="0"/>
        <pt x="348" y="-18" on="1"/>
        <pt x="383" y="387" on="1"/>
        <pt x="247" y="387" on="1"/>
        <pt x="212" y="-13" on="1"/>
        <pt x="208" y="-63" on="0"/>
        <pt x="185" y="-126" on="0"/>
        <pt x="143" y="-163" on="0"/>
        <pt x="81" y="-177" on="0"/>
        <pt x="39" y="-177" on="1"/>
        <pt x="16" y="-177" on="0"/>
        <pt x="-25" y="-174" on="0"/>
        <pt x="-45" y="-172" on="1"/>
        <pt x="-35" y="-59" on="1"/>
        <pt x="-22" y="-61" on="0"/>
        <pt x="16" y="-63" on="0"/>
        <pt x="27" y="-63" on="1"/>
        <pt x="54" y="-63" on="0"/>
        <pt x="76" y="-44" on="0"/>
        <pt x="78" y="-18" on="1"/>
      </contour>
      <contour>
        <pt x="397" y="544" on="1"/>
        <pt x="398" y="552" on="0"/>
        <pt x="399" y="567" on="0"/>
        <pt x="401" y="575" on="1"/>
        <pt x="384" y="577" on="0"/>
        <pt x="346" y="579" on="0"/>
        <pt x="326" y="579" on="1"/>
        <pt x="304" y="579" on="0"/>
        <pt x="278" y="573" on="0"/>
        <pt x="264" y="562" on="0"/>
        <pt x="260" y="545" on="0"/>
        <pt x="259" y="533" on="1"/>
        <pt x="257" y="500" on="1"/>
        <pt x="393" y="500" on="1"/>
        <pt x="397" y="544" on="1"/>
      </contour>
    </TTGlyph>
    <TTGlyph name="bar" xMin="51" yMin="118" xMax="425" yMax="548">
      <contour>
        <pt x="425" y="333" on="1"/>
        <pt x="51" y="118" on="1"/>
        <pt x="88" y="548" on="1"/>
      </contour>
    </TTGlyph>
    <TTGlyph name="braceleft" xMin="69" yMin="118" xMax="442" yMax="548">
      <contour>
        <pt x="69" y="333" on="1"/>
        <pt x="442" y="548" on="1"/>
        <pt x="405" y="118" on="1"/>
      </contour>
    </TTGlyph>
    <TTGlyph name="braceright" xMin="90" yMin="152" xMax="642" yMax="515">
      <contour>
        <pt x="364" y="515" on="1"/>
        <pt x="353" y="391" on="1"/>
        <pt x="642" y="391" on="1"/>
        <pt x="632" y="276" on="1"/>
        <pt x="343" y="276" on="1"/>
        <pt x="332" y="152" on="1"/>
        <pt x="90" y="333" on="1"/>
      </contour>
    </TTGlyph>
    <TTGlyph name="bracketleft" xMin="-45" yMin="-177" xMax="670" yMax="709">
      <contour>
        <pt x="382" y="387" on="1"/>
        <pt x="247" y="387" on="1"/>
        <pt x="212" y="-13" on="1"/>
        <pt x="208" y="-63" on="0"/>
        <pt x="185" y="-126" on="0"/>
        <pt x="143" y="-163" on="0"/>
        <pt x="81" y="-177" on="0"/>
        <pt x="39" y="-177" on="1"/>
        <pt x="16" y="-177" on="0"/>
        <pt x="-25" y="-174" on="0"/>
        <pt x="-45" y="-172" on="1"/>
        <pt x="-35" y="-59" on="1"/>
        <pt x="-22" y="-61" on="0"/>
        <pt x="16" y="-63" on="0"/>
        <pt x="27" y="-63" on="1"/>
        <pt x="54" y="-63" on="0"/>
        <pt x="76" y="-44" on="0"/>
        <pt x="78" y="-18" on="1"/>
        <pt x="113" y="387" on="1"/>
        <pt x="48" y="387" on="1"/>
        <pt x="58" y="500" on="1"/>
        <pt x="123" y="500" on="1"/>
        <pt x="125" y="520" on="1"/>
        <pt x="130" y="571" on="0"/>
        <pt x="155" y="637" on="0"/>
        <pt x="200" y="675" on="0"/>
        <pt x="265" y="689" on="0"/>
        <pt x="311" y="689" on="1"/>
        <pt x="349" y="689" on="0"/>
        <pt x="421" y="682" on="0"/>
        <pt x="447" y="678" on="1"/>
        <pt x="467" y="695" on="0"/>
        <pt x="524" y="709" on="0"/>
        <pt x="562" y="709" on="1"/>
        <pt x="594" y="709" on="0"/>
        <pt x="656" y="700" on="0"/>
        <pt x="670" y="697" on="1"/>
        <pt x="661" y="584" on="1"/>
        <pt x="645" y="588" on="0"/>
        <pt x="604" y="595" on="0"/>
        <pt x="577" y="595" on="1"/>
        <pt x="552" y="595" on="0"/>
        <pt x="532" y="570" on="0"/>
        <pt x="530" y="549" on="1"/>
        <pt x="526" y="500" on="1"/>
        <pt x="634" y="500" on="1"/>
        <pt x="624" y="387" on="1"/>
        <pt x="516" y="387" on="1"/>
        <pt x="481" y="-13" on="1"/>
        <pt x="477" y="-63" on="0"/>
        <pt x="454" y="-126" on="0"/>
        <pt x="412" y="-163" on="0"/>
        <pt x="350" y="-177" on="0"/>
        <pt x="308" y="-177" on="1"/>
        <pt x="285" y="-177" on="0"/>
        <pt x="244" y="-174" on="0"/>
        <pt x="224" y="-172" on="1"/>
        <pt x="234" y="-59" on="1"/>
        <pt x="247" y="-61" on="0"/>
        <pt x="285" y="-63" on="0"/>
        <pt x="296" y="-63" on="1"/>
        <pt x="323" y="-63" on="0"/>
        <pt x="345" y="-44" on="0"/>
        <pt x="347" y="-18" on="1"/>
      </contour>
      <contour>
        <pt x="392" y="500" on="1"/>
        <pt x="396" y="540" on="1"/>
        <pt x="397" y="549" on="0"/>
        <pt x="398" y="567" on="0"/>
        <pt x="400" y="575" on="1"/>
        <pt x="383" y="577" on="0"/>
        <pt x="346" y="579" on="0"/>
        <pt x="326" y="579" on="1"/>
        <pt x="304" y="579" on="0"/>
        <pt x="278" y="573" on="0"/>
        <pt x="264" y="562" on="0"/>
        <pt x="260" y="545" on="0"/>
        <pt x="259" y="533" on="1"/>
        <pt x="257" y="500" on="1"/>
      </contour>
    </TTGlyph>
    <TTGlyph name="bracketright" xMin="-45" yMin="-177" xMax="781" yMax="709">
      <contour>
        <pt x="736" y="-13" on="1"/>
        <pt x="732" y="-63" on="0"/>
        <pt x="708" y="-127" on="0"/>
        <pt x="667" y="-163" on="0"/>
        <pt x="606" y="-177" on="0"/>
        <pt x="564" y="-177" on="1"/>
        <pt x="550" y="-177" on="0"/>
        <pt x="523" y="-174" on="0"/>
        <pt x="503" y="-172" on="1"/>
        <pt x="513" y="-60" on="1"/>
        <pt x="526" y="-62" on="0"/>
        <pt x="548" y="-63" on="0"/>
        <pt x="552" y="-63" on="1"/>
        <pt x="579" y="-63" on="0"/>
        <pt x="601" y="-44" on="0"/>
        <pt x="603" y="-18" on="1"/>
        <pt x="638" y="387" on="1"/>
        <pt x="517" y="387" on="1"/>
        <pt x="482" y="-13" on="1"/>
        <pt x="478" y="-63" on="0"/>
        <pt x="455" y="-126" on="0"/>
        <pt x="413" y="-163" on="0"/>
        <pt x="351" y="-177" on="0"/>
        <pt x="309" y="-177" on="1"/>
        <pt x="293" y="-177" on="0"/>
        <pt x="265" y="-174" on="0"/>
        <pt x="245" y="-172" on="1"/>
        <pt x="255" y="-59" on="1"/>
        <pt x="268" y="-61" on="0"/>
        <pt x="293" y="-63" on="0"/>
        <pt x="297" y="-63" on="1"/>
        <pt x="324" y="-63" on="0"/>
        <pt x="346" y="-44" on="0"/>
        <pt x="348" y="-18" on="1"/>
        <pt x="383" y="387" on="1"/>
        <pt x="247" y="387" on="1"/>
        <pt x="212" y="-13" on="1"/>
        <pt x="208" y="-63" on="0"/>
        <pt x="185" y="-126" on="0"/>
        <pt x="143" y="-163" on="0"/>
        <pt x="81" y="-177" on="0"/>
        <pt x="39" y="-177" on="1"/>
        <pt x="16" y="-177" on="0"/>
        <pt x="-25" y="-174" on="0"/>
        <pt x="-45" y="-172" on="1"/>
        <pt x="-35" y="-59" on="1"/>
        <pt x="-22" y="-61" on="0"/>
        <pt x="16" y="-63" on="0"/>
        <pt x="27" y="-63" on="1"/>
        <pt x="54" y="-63" on="0"/>
        <pt x="76" y="-44" on="0"/>
        <pt x="78" y="-18" on="1"/>
        <pt x="113" y="387" on="1"/>
        <pt x="48" y="387" on="1"/>
        <pt x="58" y="500" on="1"/>
        <pt x="123" y="500" on="1"/>
        <pt x="125" y="520" on="1"/>
        <pt x="130" y="571" on="0"/>
        <pt x="155" y="637" on="0"/>
        <pt x="200" y="675" on="0"/>
        <pt x="265" y="689" on="0"/>
        <pt x="311" y="689" on="1"/>
        <pt x="349" y="689" on="0"/>
        <pt x="423" y="682" on="0"/>
        <pt x="449" y="678" on="1"/>
        <pt x="472" y="696" on="0"/>
        <pt x="537" y="709" on="0"/>
        <pt x="583" y="709" on="1"/>
        <pt x="613" y="709" on="0"/>
        <pt x="670" y="705" on="0"/>
        <pt x="719" y="699" on="0"/>
        <pt x="754" y="693" on="0"/>
        <pt x="761" y="691" on="1"/>
        <pt x="751" y="578" on="1"/>
        <pt x="735" y="582" on="0"/>
        <pt x="652" y="595" on="0"/>
        <pt x="598" y="595" on="1"/>
        <pt x="576" y="595" on="0"/>
        <pt x="550" y="589" on="0"/>
        <pt x="536" y="578" on="0"/>
        <pt x="532" y="561" on="0"/>
        <pt x="531" y="549" on="1"/>
        <pt x="527" y="500" on="1"/>
        <pt x="781" y="500" on="1"/>
      </contour>
      <contour>
        <pt x="397" y="544" on="1"/>
        <pt x="398" y="552" on="0"/>
        <pt x="399" y="567" on="0"/>
        <pt x="401" y="575" on="1"/>
        <pt x="384" y="577" on="0"/>
        <pt x="346" y="579" on="0"/>
        <pt x="326" y="579" on="1"/>
        <pt x="304" y="579" on="0"/>
        <pt x="278" y="573" on="0"/>
        <pt x="264" y="562" on="0"/>
        <pt x="260" y="545" on="0"/>
        <pt x="259" y="533" on="1"/>
        <pt x="257" y="500" on="1"/>
        <pt x="393" y="500" on="1"/>
        <pt x="397" y="544" on="1"/>
      </contour>
    </TTGlyph>
    <TTGlyph name="breve" xMin="61" yMin="244" xMax="222" yMax="374">
      <contour>
        <pt x="61" y="244" on="1"/>
        <pt x="72" y="374" on="1"/>
        <pt x="222" y="374" on="1"/>
        <pt x="211" y="244" on="1"/>
      </contour>
    </TTGlyph>
    <TTGlyph name="brokenbar" xMin="61" yMin="244" xMax="222" yMax="374">
      <contour>
        <pt x="61" y="244" on="1"/>
        <pt x="72" y="374" on="1"/>
        <pt x="222" y="374" on="1"/>
        <pt x="211" y="244" on="1"/>
      </contour>
    </TTGlyph>
    <TTGlyph name="bullet" xMin="61" yMin="244" xMax="222" yMax="374">
      <contour>
        <pt x="61" y="244" on="1"/>
        <pt x="72" y="374" on="1"/>
        <pt x="222" y="374" on="1"/>
        <pt x="211" y="244" on="1"/>
      </contour>
    </TTGlyph>
    <TTGlyph name="c" xMin="77" yMin="-7" xMax="362" yMax="502">
      <contour>
        <pt x="353" y="176" on="1"/>
        <pt x="353" y="79" on="0"/>
        <pt x="267" y="-7" on="0"/>
        <pt x="185" y="-7" on="1"/>
        <pt x="171" y="-7" on="0"/>
        <pt x="138" y="-5" on="0"/>
        <pt x="107" y="-2" on="0"/>
        <pt x="82" y="2" on="0"/>
        <pt x="77" y="3" on="1"/>
        <pt x="85" y="97" on="1"/>
        <pt x="99" y="94" on="0"/>
        <pt x="143" y="86" on="0"/>
        <pt x="168" y="86" on="1"/>
        <pt x="200" y="86" on="0"/>
        <pt x="237" y="123" on="0"/>
        <pt x="237" y="161" on="1"/>
        <pt x="237" y="219" on="0"/>
        <pt x="178" y="219" on="1"/>
        <pt x="135" y="219" on="1"/>
        <pt x="143" y="310" on="1"/>
        <pt x="179" y="310" on="1"/>
        <pt x="201" y="310" on="0"/>
        <pt x="228" y="320" on="0"/>
        <pt x="242" y="337" on="0"/>
        <pt x="247" y="359" on="0"/>
        <pt x="247" y="372" on="1"/>
        <pt x="247" y="409" on="0"/>
        <pt x="197" y="409" on="1"/>
        <pt x="176" y="409" on="0"/>
        <pt x="132" y="401" on="0"/>
        <pt x="115" y="397" on="1"/>
        <pt x="123" y="491" on="1"/>
        <pt x="126" y="492" on="0"/>
        <pt x="148" y="495" on="0"/>
        <pt x="177" y="499" on="0"/>
        <pt x="210" y="502" on="0"/>
        <pt x="225" y="502" on="1"/>
        <pt x="297" y="502" on="0"/>
        <pt x="362" y="447" on="0"/>
        <pt x="362" y="387" on="1"/>
        <pt x="362" y="371" on="0"/>
        <pt x="355" y="333" on="0"/>
        <pt x="338" y="299" on="0"/>
        <pt x="311" y="272" on="0"/>
        <pt x="290" y="267" on="1"/>
        <pt x="304" y="264" on="0"/>
        <pt x="327" y="244" on="0"/>
        <pt x="343" y="219" on="0"/>
        <pt x="353" y="190" on="0"/>
      </contour>
    </TTGlyph>
    <TTGlyph name="caron" xMin="61" yMin="244" xMax="222" yMax="374">
      <contour>
        <pt x="61" y="244" on="1"/>
        <pt x="72" y="374" on="1"/>
        <pt x="222" y="374" on="1"/>
        <pt x="211" y="244" on="1"/>
      </contour>
    </TTGlyph>
    <TTGlyph name="ccedilla" xMin="61" yMin="244" xMax="222" yMax="374">
      <contour>
        <pt x="61" y="244" on="1"/>
        <pt x="72" y="374" on="1"/>
        <pt x="222" y="374" on="1"/>
        <pt x="211" y="244" on="1"/>
      </contour>
    </TTGlyph>
    <TTGlyph name="cedilla" xMin="61" yMin="244" xMax="222" yMax="374">
      <contour>
        <pt x="61" y="244" on="1"/>
        <pt x="72" y="374" on="1"/>
        <pt x="222" y="374" on="1"/>
        <pt x="211" y="244" on="1"/>
      </contour>
    </TTGlyph>
    <TTGlyph name="cent" xMin="61" yMin="244" xMax="222" yMax="374">
      <contour>
        <pt x="61" y="244" on="1"/>
        <pt x="72" y="374" on="1"/>
        <pt x="222" y="374" on="1"/>
        <pt x="211" y="244" on="1"/>
      </contour>
    </TTGlyph>
    <TTGlyph name="circumflex" xMin="61" yMin="244" xMax="222" yMax="374">
      <contour>
        <pt x="61" y="244" on="1"/>
        <pt x="72" y="374" on="1"/>
        <pt x="222" y="374" on="1"/>
        <pt x="211" y="244" on="1"/>
      </contour>
    </TTGlyph>
    <TTGlyph name="colon" xMin="61" yMin="244" xMax="222" yMax="374">
      <contour>
        <pt x="61" y="244" on="1"/>
        <pt x="72" y="374" on="1"/>
        <pt x="222" y="374" on="1"/>
        <pt x="211" y="244" on="1"/>
      </contour>
    </TTGlyph>
    <TTGlyph name="comma" xMin="72" yMin="581" xMax="465" yMax="716">
      <contour>
        <pt x="216" y="716" on="1"/>
        <pt x="260" y="642" on="1"/>
        <pt x="316" y="716" on="1"/>
        <pt x="465" y="716" on="1"/>
        <pt x="331" y="581" on="1"/>
        <pt x="183" y="581" on="1"/>
        <pt x="72" y="716" on="1"/>
      </contour>
    </TTGlyph>
    <TTGlyph name="copyright" xMin="61" yMin="244" xMax="222" yMax="374">
      <contour>
        <pt x="61" y="244" on="1"/>
        <pt x="72" y="374" on="1"/>
        <pt x="222" y="374" on="1"/>
        <pt x="211" y="244" on="1"/>
      </contour>
    </TTGlyph>
    <TTGlyph name="currency" xMin="33" yMin="28" xMax="577" yMax="572">
      <contour>
        <pt x="105" y="185" on="1"/>
        <pt x="94" y="210" on="0"/>
        <pt x="85" y="268" on="0"/>
        <pt x="85" y="300" on="1"/>
        <pt x="85" y="365" on="0"/>
        <pt x="106" y="414" on="1"/>
        <pt x="33" y="487" on="1"/>
        <pt x="118" y="572" on="1"/>
        <pt x="184" y="506" on="1"/>
        <pt x="235" y="537" on="0"/>
        <pt x="305" y="537" on="1"/>
        <pt x="373" y="537" on="0"/>
        <pt x="426" y="506" on="1"/>
        <pt x="492" y="572" on="1"/>
        <pt x="577" y="487" on="1"/>
        <pt x="509" y="419" on="1"/>
        <pt x="535" y="367" on="0"/>
        <pt x="535" y="300" on="1"/>
        <pt x="535" y="234" on="0"/>
        <pt x="509" y="180" on="1"/>
        <pt x="577" y="113" on="1"/>
        <pt x="492" y="28" on="1"/>
        <pt x="427" y="92" on="1"/>
        <pt x="377" y="63" on="0"/>
        <pt x="305" y="63" on="1"/>
        <pt x="232" y="63" on="0"/>
        <pt x="182" y="92" on="1"/>
        <pt x="118" y="28" on="1"/>
        <pt x="33" y="113" on="1"/>
      </contour>
      <contour>
        <pt x="403" y="300" on="1"/>
        <pt x="403" y="356" on="0"/>
        <pt x="355" y="430" on="0"/>
        <pt x="305" y="430" on="1"/>
        <pt x="255" y="430" on="0"/>
        <pt x="207" y="356" on="0"/>
        <pt x="207" y="300" on="1"/>
        <pt x="207" y="244" on="0"/>
        <pt x="255" y="170" on="0"/>
        <pt x="305" y="170" on="1"/>
        <pt x="330" y="170" on="0"/>
        <pt x="367" y="190" on="0"/>
        <pt x="391" y="225" on="0"/>
        <pt x="403" y="272" on="0"/>
      </contour>
    </TTGlyph>
    <TTGlyph name="d" xMin="74" yMin="0" xMax="385" yMax="495">
      <contour>
        <pt x="332" y="117" on="1"/>
        <pt x="321" y="0" on="1"/>
        <pt x="207" y="0" on="1"/>
        <pt x="218" y="117" on="1"/>
        <pt x="74" y="117" on="1"/>
        <pt x="83" y="221" on="1"/>
        <pt x="178" y="495" on="1"/>
        <pt x="288" y="495" on="1"/>
        <pt x="190" y="211" on="1"/>
        <pt x="228" y="211" on="1"/>
        <pt x="253" y="324" on="1"/>
        <pt x="350" y="324" on="1"/>
        <pt x="340" y="211" on="1"/>
        <pt x="385" y="211" on="1"/>
        <pt x="377" y="117" on="1"/>
      </contour>
    </TTGlyph>
    <TTGlyph name="dagger" xMin="61" yMin="244" xMax="222" yMax="374">
      <contour>
        <pt x="61" y="244" on="1"/>
        <pt x="72" y="374" on="1"/>
        <pt x="222" y="374" on="1"/>
        <pt x="211" y="244" on="1"/>
      </contour>
    </TTGlyph>
    <TTGlyph name="daggerdbl" xMin="61" yMin="244" xMax="222" yMax="374">
      <contour>
        <pt x="61" y="244" on="1"/>
        <pt x="72" y="374" on="1"/>
        <pt x="222" y="374" on="1"/>
        <pt x="211" y="244" on="1"/>
      </contour>
    </TTGlyph>
    <TTGlyph name="degree" xMin="61" yMin="244" xMax="222" yMax="374">
      <contour>
        <pt x="61" y="244" on="1"/>
        <pt x="72" y="374" on="1"/>
        <pt x="222" y="374" on="1"/>
        <pt x="211" y="244" on="1"/>
      </contour>
    </TTGlyph>
    <TTGlyph name="dieresis" xMin="61" yMin="244" xMax="222" yMax="374">
      <contour>
        <pt x="61" y="244" on="1"/>
        <pt x="72" y="374" on="1"/>
        <pt x="222" y="374" on="1"/>
        <pt x="211" y="244" on="1"/>
      </contour>
    </TTGlyph>
    <TTGlyph name="divide" xMin="61" yMin="244" xMax="222" yMax="374">
      <contour>
        <pt x="61" y="244" on="1"/>
        <pt x="72" y="374" on="1"/>
        <pt x="222" y="374" on="1"/>
        <pt x="211" y="244" on="1"/>
      </contour>
    </TTGlyph>
    <TTGlyph name="dollar" xMin="70" yMin="-110" xMax="280" yMax="810">
      <contour>
        <pt x="70" y="-110" on="1"/>
        <pt x="101" y="250" on="1"/>
        <pt x="231" y="250" on="1"/>
        <pt x="200" y="-110" on="1"/>
      </contour>
      <contour>
        <pt x="119" y="450" on="1"/>
        <pt x="150" y="810" on="1"/>
        <pt x="280" y="810" on="1"/>
        <pt x="249" y="450" on="1"/>
      </contour>
    </TTGlyph>
    <TTGlyph name="dotaccent" xMin="61" yMin="244" xMax="222" yMax="374">
      <contour>
        <pt x="61" y="244" on="1"/>
        <pt x="72" y="374" on="1"/>
        <pt x="222" y="374" on="1"/>
        <pt x="211" y="244" on="1"/>
      </contour>
    </TTGlyph>
    <TTGlyph name="dotlessi" xMin="61" yMin="244" xMax="222" yMax="374">
      <contour>
        <pt x="61" y="244" on="1"/>
        <pt x="72" y="374" on="1"/>
        <pt x="222" y="374" on="1"/>
        <pt x="211" y="244" on="1"/>
      </contour>
    </TTGlyph>
    <TTGlyph name="dotmath" xMin="61" yMin="244" xMax="222" yMax="374">
      <contour>
        <pt x="61" y="244" on="1"/>
        <pt x="72" y="374" on="1"/>
        <pt x="222" y="374" on="1"/>
        <pt x="211" y="244" on="1"/>
      </contour>
    </TTGlyph>
    <TTGlyph name="e" xMin="84" yMin="-7" xMax="363" yMax="495">
      <contour>
        <pt x="235" y="398" on="1"/>
        <pt x="228" y="316" on="1"/>
        <pt x="237" y="316" on="1"/>
        <pt x="272" y="316" on="0"/>
        <pt x="319" y="300" on="0"/>
        <pt x="346" y="270" on="0"/>
        <pt x="357" y="226" on="0"/>
        <pt x="357" y="198" on="1"/>
        <pt x="357" y="137" on="0"/>
        <pt x="333" y="58" on="0"/>
        <pt x="291" y="11" on="0"/>
        <pt x="232" y="-7" on="0"/>
        <pt x="197" y="-7" on="1"/>
        <pt x="182" y="-7" on="0"/>
        <pt x="149" y="-5" on="0"/>
        <pt x="118" y="-2" on="0"/>
        <pt x="92" y="2" on="0"/>
        <pt x="84" y="3" on="1"/>
        <pt x="92" y="100" on="1"/>
        <pt x="102" y="98" on="0"/>
        <pt x="153" y="90" on="0"/>
        <pt x="185" y="90" on="1"/>
        <pt x="217" y="90" on="0"/>
        <pt x="241" y="143" on="0"/>
        <pt x="241" y="177" on="1"/>
        <pt x="241" y="202" on="0"/>
        <pt x="221" y="223" on="0"/>
        <pt x="190" y="223" on="1"/>
        <pt x="110" y="223" on="1"/>
        <pt x="134" y="495" on="1"/>
        <pt x="363" y="495" on="1"/>
        <pt x="354" y="398" on="1"/>
      </contour>
    </TTGlyph>
    <TTGlyph name="eacute" xMin="61" yMin="244" xMax="222" yMax="374">
      <contour>
        <pt x="61" y="244" on="1"/>
        <pt x="72" y="374" on="1"/>
        <pt x="222" y="374" on="1"/>
        <pt x="211" y="244" on="1"/>
      </contour>
    </TTGlyph>
    <TTGlyph name="ecircumflex" xMin="61" yMin="244" xMax="222" yMax="374">
      <contour>
        <pt x="61" y="244" on="1"/>
        <pt x="72" y="374" on="1"/>
        <pt x="222" y="374" on="1"/>
        <pt x="211" y="244" on="1"/>
      </contour>
    </TTGlyph>
    <TTGlyph name="edieresis" xMin="61" yMin="244" xMax="222" yMax="374">
      <contour>
        <pt x="61" y="244" on="1"/>
        <pt x="72" y="374" on="1"/>
        <pt x="222" y="374" on="1"/>
        <pt x="211" y="244" on="1"/>
      </contour>
    </TTGlyph>
    <TTGlyph name="egrave" xMin="61" yMin="244" xMax="222" yMax="374">
      <contour>
        <pt x="61" y="244" on="1"/>
        <pt x="72" y="374" on="1"/>
        <pt x="222" y="374" on="1"/>
        <pt x="211" y="244" on="1"/>
      </contour>
    </TTGlyph>
    <TTGlyph name="eight" xMin="61" yMin="244" xMax="222" yMax="374">
      <contour>
        <pt x="61" y="244" on="1"/>
        <pt x="72" y="374" on="1"/>
        <pt x="222" y="374" on="1"/>
        <pt x="211" y="244" on="1"/>
      </contour>
    </TTGlyph>
    <TTGlyph name="ellipsis" xMin="61" yMin="244" xMax="222" yMax="374">
      <contour>
        <pt x="61" y="244" on="1"/>
        <pt x="72" y="374" on="1"/>
        <pt x="222" y="374" on="1"/>
        <pt x="211" y="244" on="1"/>
      </contour>
    </TTGlyph>
    <TTGlyph name="emdash" xMin="61" yMin="244" xMax="222" yMax="374">
      <contour>
        <pt x="61" y="244" on="1"/>
        <pt x="72" y="374" on="1"/>
        <pt x="222" y="374" on="1"/>
        <pt x="211" y="244" on="1"/>
      </contour>
    </TTGlyph>
    <TTGlyph name="endash" xMin="61" yMin="244" xMax="222" yMax="374">
      <contour>
        <pt x="61" y="244" on="1"/>
        <pt x="72" y="374" on="1"/>
        <pt x="222" y="374" on="1"/>
        <pt x="211" y="244" on="1"/>
      </contour>
    </TTGlyph>
    <TTGlyph name="equal" xMin="69" yMin="50" xMax="513" yMax="555">
      <contour>
        <pt x="254" y="145" on="1"/>
        <pt x="194" y="50" on="1"/>
        <pt x="69" y="50" on="1"/>
        <pt x="129" y="145" on="1"/>
        <pt x="77" y="145" on="1"/>
        <pt x="87" y="260" on="1"/>
        <pt x="201" y="260" on="1"/>
        <pt x="255" y="345" on="1"/>
        <pt x="95" y="345" on="1"/>
        <pt x="105" y="460" on="1"/>
        <pt x="328" y="460" on="1"/>
        <pt x="388" y="555" on="1"/>
        <pt x="513" y="555" on="1"/>
        <pt x="453" y="460" on="1"/>
        <pt x="505" y="460" on="1"/>
        <pt x="495" y="345" on="1"/>
        <pt x="380" y="345" on="1"/>
        <pt x="326" y="260" on="1"/>
        <pt x="487" y="260" on="1"/>
        <pt x="477" y="145" on="1"/>
      </contour>
    </TTGlyph>
    <TTGlyph name="eth" xMin="61" yMin="244" xMax="222" yMax="374">
      <contour>
        <pt x="61" y="244" on="1"/>
        <pt x="72" y="374" on="1"/>
        <pt x="222" y="374" on="1"/>
        <pt x="211" y="244" on="1"/>
      </contour>
    </TTGlyph>
    <TTGlyph name="exclam" xMin="76" yMin="135" xMax="520" yMax="645">
      <contour>
        <pt x="76" y="135" on="1"/>
        <pt x="86" y="250" on="1"/>
        <pt x="486" y="250" on="1"/>
        <pt x="476" y="135" on="1"/>
      </contour>
      <contour>
        <pt x="94" y="335" on="1"/>
        <pt x="104" y="450" on="1"/>
        <pt x="504" y="450" on="1"/>
        <pt x="494" y="335" on="1"/>
      </contour>
      <contour>
        <pt x="118" y="610" on="1"/>
        <pt x="154" y="631" on="0"/>
        <pt x="223" y="645" on="0"/>
        <pt x="245" y="645" on="1"/>
        <pt x="265" y="645" on="0"/>
        <pt x="305" y="633" on="0"/>
        <pt x="344" y="618" on="0"/>
        <pt x="384" y="606" on="0"/>
        <pt x="403" y="606" on="1"/>
        <pt x="416" y="606" on="0"/>
        <pt x="448" y="611" on="0"/>
        <pt x="480" y="620" on="0"/>
        <pt x="509" y="633" on="0"/>
        <pt x="520" y="640" on="1"/>
        <pt x="510" y="522" on="1"/>
        <pt x="498" y="515" on="0"/>
        <pt x="466" y="502" on="0"/>
        <pt x="431" y="492" on="0"/>
        <pt x="397" y="487" on="0"/>
        <pt x="383" y="487" on="1"/>
        <pt x="362" y="487" on="0"/>
        <pt x="324" y="500" on="0"/>
        <pt x="287" y="515" on="0"/>
        <pt x="249" y="528" on="0"/>
        <pt x="228" y="528" on="1"/>
        <pt x="215" y="528" on="0"/>
        <pt x="182" y="522" on="0"/>
        <pt x="149" y="512" on="0"/>
        <pt x="119" y="499" on="0"/>
        <pt x="108" y="492" on="1"/>
      </contour>
    </TTGlyph>
    <TTGlyph name="exclamdown" xMin="61" yMin="244" xMax="222" yMax="374">
      <contour>
        <pt x="61" y="244" on="1"/>
        <pt x="72" y="374" on="1"/>
        <pt x="222" y="374" on="1"/>
        <pt x="211" y="244" on="1"/>
      </contour>
    </TTGlyph>
    <TTGlyph name="f" xMin="76" yMin="-7" xMax="381" yMax="502">
      <contour>
        <pt x="379" y="158" on="1"/>
        <pt x="371" y="70" on="0"/>
        <pt x="283" y="-7" on="0"/>
        <pt x="210" y="-7" on="1"/>
        <pt x="179" y="-7" on="0"/>
        <pt x="129" y="7" on="0"/>
        <pt x="94" y="47" on="0"/>
        <pt x="76" y="119" on="0"/>
        <pt x="76" y="178" on="1"/>
        <pt x="76" y="282" on="0"/>
        <pt x="105" y="410" on="0"/>
        <pt x="158" y="479" on="0"/>
        <pt x="232" y="502" on="0"/>
        <pt x="277" y="502" on="1"/>
        <pt x="310" y="502" on="0"/>
        <pt x="359" y="495" on="0"/>
        <pt x="369" y="493" on="1"/>
        <pt x="360" y="399" on="1"/>
        <pt x="346" y="403" on="0"/>
        <pt x="308" y="410" on="0"/>
        <pt x="284" y="410" on="1"/>
        <pt x="265" y="410" on="0"/>
        <pt x="238" y="404" on="0"/>
        <pt x="219" y="385" on="0"/>
        <pt x="207" y="350" on="0"/>
        <pt x="202" y="322" on="1"/>
        <pt x="214" y="327" on="0"/>
        <pt x="242" y="334" on="0"/>
        <pt x="258" y="334" on="1"/>
        <pt x="322" y="334" on="0"/>
        <pt x="381" y="262" on="0"/>
        <pt x="381" y="193" on="1"/>
        <pt x="381" y="185" on="0"/>
        <pt x="380" y="167" on="0"/>
      </contour>
      <contour>
        <pt x="221" y="242" on="1"/>
        <pt x="206" y="242" on="0"/>
        <pt x="192" y="236" on="1"/>
        <pt x="189" y="205" on="0"/>
        <pt x="187" y="160" on="0"/>
        <pt x="187" y="144" on="1"/>
        <pt x="187" y="107" on="0"/>
        <pt x="203" y="87" on="0"/>
        <pt x="221" y="87" on="1"/>
        <pt x="236" y="87" on="0"/>
        <pt x="255" y="104" on="0"/>
        <pt x="264" y="132" on="0"/>
        <pt x="267" y="168" on="0"/>
        <pt x="267" y="187" on="1"/>
        <pt x="267" y="221" on="0"/>
        <pt x="247" y="242" on="0"/>
      </contour>
    </TTGlyph>
    <TTGlyph name="fi" xMin="61" yMin="244" xMax="222" yMax="374">
      <contour>
        <pt x="61" y="244" on="1"/>
        <pt x="72" y="374" on="1"/>
        <pt x="222" y="374" on="1"/>
        <pt x="211" y="244" on="1"/>
      </contour>
    </TTGlyph>
    <TTGlyph name="five" xMin="61" yMin="244" xMax="222" yMax="374">
      <contour>
        <pt x="61" y="244" on="1"/>
        <pt x="72" y="374" on="1"/>
        <pt x="222" y="374" on="1"/>
        <pt x="211" y="244" on="1"/>
      </contour>
    </TTGlyph>
    <TTGlyph name="fl" xMin="61" yMin="244" xMax="222" yMax="374">
      <contour>
        <pt x="61" y="244" on="1"/>
        <pt x="72" y="374" on="1"/>
        <pt x="222" y="374" on="1"/>
        <pt x="211" y="244" on="1"/>
      </contour>
    </TTGlyph>
    <TTGlyph name="florin" xMin="61" yMin="244" xMax="222" yMax="374">
      <contour>
        <pt x="61" y="244" on="1"/>
        <pt x="72" y="374" on="1"/>
        <pt x="222" y="374" on="1"/>
        <pt x="211" y="244" on="1"/>
      </contour>
    </TTGlyph>
    <TTGlyph name="four" xMin="61" yMin="244" xMax="222" yMax="374">
      <contour>
        <pt x="61" y="244" on="1"/>
        <pt x="72" y="374" on="1"/>
        <pt x="222" y="374" on="1"/>
        <pt x="211" y="244" on="1"/>
      </contour>
    </TTGlyph>
    <TTGlyph name="fraction" xMin="61" yMin="244" xMax="222" yMax="374">
      <contour>
        <pt x="61" y="244" on="1"/>
        <pt x="72" y="374" on="1"/>
        <pt x="222" y="374" on="1"/>
        <pt x="211" y="244" on="1"/>
      </contour>
    </TTGlyph>
    <TTGlyph name="g" xMin="105" yMin="0" xMax="387" yMax="495">
      <contour>
        <pt x="222" y="0" on="1"/>
        <pt x="105" y="0" on="1"/>
        <pt x="266" y="400" on="1"/>
        <pt x="117" y="400" on="1"/>
        <pt x="126" y="495" on="1"/>
        <pt x="387" y="495" on="1"/>
        <pt x="377" y="384" on="1"/>
      </contour>
    </TTGlyph>
    <TTGlyph name="germandbls" xMin="61" yMin="244" xMax="222" yMax="374">
      <contour>
        <pt x="61" y="244" on="1"/>
        <pt x="72" y="374" on="1"/>
        <pt x="222" y="374" on="1"/>
        <pt x="211" y="244" on="1"/>
      </contour>
    </TTGlyph>
    <TTGlyph name="grave" xMin="58" yMin="215" xMax="280" yMax="410">
      <contour>
        <pt x="58" y="215" on="1"/>
        <pt x="75" y="410" on="1"/>
        <pt x="280" y="410" on="1"/>
        <pt x="263" y="215" on="1"/>
      </contour>
    </TTGlyph>
    <TTGlyph name="greater" xMin="65" yMin="0" xMax="502" yMax="583">
      <contour>
        <pt x="65" y="0" on="1"/>
        <pt x="75" y="115" on="1"/>
        <pt x="475" y="115" on="1"/>
        <pt x="465" y="0" on="1"/>
      </contour>
      <contour>
        <pt x="76" y="136" on="1"/>
        <pt x="88" y="271" on="1"/>
        <pt x="384" y="351" on="1"/>
        <pt x="104" y="454" on="1"/>
        <pt x="116" y="583" on="1"/>
        <pt x="502" y="427" on="1"/>
        <pt x="488" y="264" on="1"/>
      </contour>
    </TTGlyph>
    <TTGlyph name="greaterequal" xMin="61" yMin="244" xMax="222" yMax="374">
      <contour>
        <pt x="61" y="244" on="1"/>
        <pt x="72" y="374" on="1"/>
        <pt x="222" y="374" on="1"/>
        <pt x="211" y="244" on="1"/>
      </contour>
    </TTGlyph>
    <TTGlyph name="guillemotleft" xMin="61" yMin="244" xMax="222" yMax="374">
      <contour>
        <pt x="61" y="244" on="1"/>
        <pt x="72" y="374" on="1"/>
        <pt x="222" y="374" on="1"/>
        <pt x="211" y="244" on="1"/>
      </contour>
    </TTGlyph>
    <TTGlyph name="guillemotright" xMin="61" yMin="244" xMax="222" yMax="374">
      <contour>
        <pt x="61" y="244" on="1"/>
        <pt x="72" y="374" on="1"/>
        <pt x="222" y="374" on="1"/>
        <pt x="211" y="244" on="1"/>
      </contour>
    </TTGlyph>
    <TTGlyph name="guilsinglleft" xMin="61" yMin="244" xMax="222" yMax="374">
      <contour>
        <pt x="61" y="244" on="1"/>
        <pt x="72" y="374" on="1"/>
        <pt x="222" y="374" on="1"/>
        <pt x="211" y="244" on="1"/>
      </contour>
    </TTGlyph>
    <TTGlyph name="guilsinglright" xMin="61" yMin="244" xMax="222" yMax="374">
      <contour>
        <pt x="61" y="244" on="1"/>
        <pt x="72" y="374" on="1"/>
        <pt x="222" y="374" on="1"/>
        <pt x="211" y="244" on="1"/>
      </contour>
    </TTGlyph>
    <TTGlyph name="h" xMin="57" yMin="-7" xMax="402" yMax="502">
      <contour>
        <pt x="279" y="161" on="1"/>
        <pt x="279" y="173" on="0"/>
        <pt x="273" y="194" on="0"/>
        <pt x="258" y="208" on="0"/>
        <pt x="231" y="216" on="0"/>
        <pt x="209" y="216" on="1"/>
        <pt x="187" y="199" on="0"/>
        <pt x="173" y="163" on="0"/>
        <pt x="173" y="129" on="1"/>
        <pt x="173" y="111" on="0"/>
        <pt x="193" y="85" on="0"/>
        <pt x="220" y="85" on="1"/>
        <pt x="240" y="85" on="0"/>
        <pt x="263" y="98" on="0"/>
        <pt x="275" y="120" on="0"/>
        <pt x="279" y="147" on="0"/>
      </contour>
      <contour>
        <pt x="288" y="364" on="1"/>
        <pt x="288" y="390" on="0"/>
        <pt x="269" y="410" on="0"/>
        <pt x="248" y="410" on="1"/>
        <pt x="224" y="410" on="0"/>
        <pt x="199" y="384" on="0"/>
        <pt x="199" y="349" on="1"/>
        <pt x="199" y="328" on="0"/>
        <pt x="219" y="300" on="0"/>
        <pt x="251" y="300" on="1"/>
        <pt x="268" y="308" on="0"/>
        <pt x="288" y="337" on="0"/>
      </contour>
      <contour>
        <pt x="393" y="168" on="1"/>
        <pt x="393" y="129" on="0"/>
        <pt x="372" y="65" on="0"/>
        <pt x="328" y="19" on="0"/>
        <pt x="260" y="-7" on="0"/>
        <pt x="212" y="-7" on="1"/>
        <pt x="129" y="-7" on="0"/>
        <pt x="57" y="65" on="0"/>
        <pt x="57" y="127" on="1"/>
        <pt x="57" y="172" on="0"/>
        <pt x="95" y="239" on="0"/>
        <pt x="132" y="251" on="1"/>
        <pt x="109" y="262" on="0"/>
        <pt x="86" y="307" on="0"/>
        <pt x="86" y="339" on="1"/>
        <pt x="86" y="378" on="0"/>
        <pt x="104" y="438" on="0"/>
        <pt x="144" y="480" on="0"/>
        <pt x="209" y="502" on="0"/>
        <pt x="256" y="502" on="1"/>
        <pt x="331" y="502" on="0"/>
        <pt x="402" y="439" on="0"/>
        <pt x="402" y="378" on="1"/>
        <pt x="402" y="368" on="0"/>
        <pt x="397" y="335" on="0"/>
        <pt x="382" y="301" on="0"/>
        <pt x="356" y="272" on="0"/>
        <pt x="334" y="266" on="1"/>
        <pt x="363" y="258" on="0"/>
        <pt x="393" y="206" on="0"/>
      </contour>
    </TTGlyph>
    <TTGlyph name="hungarumlaut" xMin="61" yMin="244" xMax="222" yMax="374">
      <contour>
        <pt x="61" y="244" on="1"/>
        <pt x="72" y="374" on="1"/>
        <pt x="222" y="374" on="1"/>
        <pt x="211" y="244" on="1"/>
      </contour>
    </TTGlyph>
    <TTGlyph name="hyphen" xMin="86" yMin="245" xMax="441" yMax="360">
      <contour>
        <pt x="86" y="245" on="1"/>
        <pt x="96" y="360" on="1"/>
        <pt x="441" y="360" on="1"/>
        <pt x="431" y="245" on="1"/>
      </contour>
    </TTGlyph>
    <TTGlyph name="i" xMin="118" yMin="-6" xMax="422" yMax="503">
      <contour>
        <pt x="120" y="344" on="1"/>
        <pt x="127" y="427" on="0"/>
        <pt x="220" y="503" on="0"/>
        <pt x="289" y="503" on="1"/>
        <pt x="322" y="503" on="0"/>
        <pt x="371" y="487" on="0"/>
        <pt x="405" y="447" on="0"/>
        <pt x="422" y="378" on="0"/>
        <pt x="422" y="325" on="1"/>
        <pt x="422" y="307" on="0"/>
        <pt x="420" y="267" on="0"/>
        <pt x="418" y="244" on="1"/>
        <pt x="411" y="162" on="0"/>
        <pt x="379" y="63" on="0"/>
        <pt x="329" y="10" on="0"/>
        <pt x="263" y="-6" on="0"/>
        <pt x="222" y="-6" on="1"/>
        <pt x="194" y="-6" on="0"/>
        <pt x="147" y="0" on="0"/>
        <pt x="138" y="2" on="1"/>
        <pt x="146" y="96" on="1"/>
        <pt x="160" y="92" on="0"/>
        <pt x="195" y="86" on="0"/>
        <pt x="215" y="86" on="1"/>
        <pt x="234" y="86" on="0"/>
        <pt x="260" y="93" on="0"/>
        <pt x="279" y="112" on="0"/>
        <pt x="291" y="146" on="0"/>
        <pt x="295" y="174" on="1"/>
        <pt x="283" y="169" on="0"/>
        <pt x="256" y="163" on="0"/>
        <pt x="239" y="163" on="1"/>
        <pt x="176" y="163" on="0"/>
        <pt x="118" y="231" on="0"/>
        <pt x="118" y="303" on="1"/>
        <pt x="118" y="313" on="0"/>
        <pt x="119" y="333" on="0"/>
      </contour>
      <contour>
        <pt x="276" y="254" on="1"/>
        <pt x="289" y="254" on="0"/>
        <pt x="304" y="259" on="1"/>
        <pt x="306" y="289" on="0"/>
        <pt x="309" y="334" on="0"/>
        <pt x="309" y="351" on="1"/>
        <pt x="309" y="390" on="0"/>
        <pt x="294" y="409" on="0"/>
        <pt x="278" y="409" on="1"/>
        <pt x="263" y="409" on="0"/>
        <pt x="244" y="391" on="0"/>
        <pt x="233" y="363" on="0"/>
        <pt x="230" y="326" on="0"/>
        <pt x="230" y="307" on="1"/>
        <pt x="230" y="275" on="0"/>
        <pt x="251" y="254" on="0"/>
      </contour>
    </TTGlyph>
    <TTGlyph name="iacute" xMin="61" yMin="244" xMax="222" yMax="374">
      <contour>
        <pt x="61" y="244" on="1"/>
        <pt x="72" y="374" on="1"/>
        <pt x="222" y="374" on="1"/>
        <pt x="211" y="244" on="1"/>
      </contour>
    </TTGlyph>
    <TTGlyph name="icircumflex" xMin="61" yMin="244" xMax="222" yMax="374">
      <contour>
        <pt x="61" y="244" on="1"/>
        <pt x="72" y="374" on="1"/>
        <pt x="222" y="374" on="1"/>
        <pt x="211" y="244" on="1"/>
      </contour>
    </TTGlyph>
    <TTGlyph name="idieresis" xMin="61" yMin="244" xMax="222" yMax="374">
      <contour>
        <pt x="61" y="244" on="1"/>
        <pt x="72" y="374" on="1"/>
        <pt x="222" y="374" on="1"/>
        <pt x="211" y="244" on="1"/>
      </contour>
    </TTGlyph>
    <TTGlyph name="igrave" xMin="61" yMin="244" xMax="222" yMax="374">
      <contour>
        <pt x="61" y="244" on="1"/>
        <pt x="72" y="374" on="1"/>
        <pt x="222" y="374" on="1"/>
        <pt x="211" y="244" on="1"/>
      </contour>
    </TTGlyph>
    <TTGlyph name="infinity" xMin="61" yMin="244" xMax="222" yMax="374">
      <contour>
        <pt x="61" y="244" on="1"/>
        <pt x="72" y="374" on="1"/>
        <pt x="222" y="374" on="1"/>
        <pt x="211" y="244" on="1"/>
      </contour>
    </TTGlyph>
    <TTGlyph name="integral" xMin="61" yMin="244" xMax="222" yMax="374">
      <contour>
        <pt x="61" y="244" on="1"/>
        <pt x="72" y="374" on="1"/>
        <pt x="222" y="374" on="1"/>
        <pt x="211" y="244" on="1"/>
      </contour>
    </TTGlyph>
    <TTGlyph name="j" xMin="118" yMin="-6" xMax="422" yMax="503">
      <contour>
        <pt x="120" y="344" on="1"/>
        <pt x="127" y="427" on="0"/>
        <pt x="220" y="503" on="0"/>
        <pt x="289" y="503" on="1"/>
        <pt x="322" y="503" on="0"/>
        <pt x="371" y="487" on="0"/>
        <pt x="405" y="447" on="0"/>
        <pt x="422" y="378" on="0"/>
        <pt x="422" y="325" on="1"/>
        <pt x="422" y="307" on="0"/>
        <pt x="420" y="267" on="0"/>
        <pt x="418" y="244" on="1"/>
        <pt x="411" y="162" on="0"/>
        <pt x="379" y="63" on="0"/>
        <pt x="329" y="10" on="0"/>
        <pt x="263" y="-6" on="0"/>
        <pt x="222" y="-6" on="1"/>
        <pt x="194" y="-6" on="0"/>
        <pt x="147" y="0" on="0"/>
        <pt x="138" y="2" on="1"/>
        <pt x="146" y="96" on="1"/>
        <pt x="160" y="92" on="0"/>
        <pt x="195" y="86" on="0"/>
        <pt x="215" y="86" on="1"/>
        <pt x="233" y="86" on="0"/>
        <pt x="260" y="93" on="0"/>
        <pt x="278" y="112" on="0"/>
        <pt x="290" y="146" on="0"/>
        <pt x="294" y="174" on="1"/>
        <pt x="270" y="163" on="0"/>
        <pt x="239" y="163" on="1"/>
        <pt x="176" y="163" on="0"/>
        <pt x="118" y="231" on="0"/>
        <pt x="118" y="303" on="1"/>
        <pt x="118" y="313" on="0"/>
        <pt x="119" y="333" on="0"/>
      </contour>
      <contour>
        <pt x="276" y="254" on="1"/>
        <pt x="289" y="254" on="0"/>
        <pt x="304" y="259" on="1"/>
        <pt x="306" y="288" on="0"/>
        <pt x="309" y="332" on="0"/>
        <pt x="309" y="348" on="1"/>
        <pt x="309" y="368" on="0"/>
        <pt x="305" y="392" on="0"/>
        <pt x="298" y="405" on="0"/>
        <pt x="286" y="409" on="0"/>
        <pt x="278" y="409" on="1"/>
        <pt x="263" y="409" on="0"/>
        <pt x="244" y="391" on="0"/>
        <pt x="233" y="363" on="0"/>
        <pt x="230" y="326" on="0"/>
        <pt x="230" y="307" on="1"/>
        <pt x="230" y="275" on="0"/>
        <pt x="251" y="254" on="0"/>
      </contour>
    </TTGlyph>
    <TTGlyph name="k" xMin="81" yMin="245" xMax="501" yMax="360">
      <contour>
        <pt x="81" y="245" on="1"/>
        <pt x="91" y="360" on="1"/>
        <pt x="501" y="360" on="1"/>
        <pt x="491" y="245" on="1"/>
      </contour>
    </TTGlyph>
    <TTGlyph name="l" xMin="58" yMin="-4" xMax="582" yMax="500">
      <contour>
        <pt x="104" y="0" on="1"/>
        <pt x="137" y="386" on="1"/>
        <pt x="58" y="386" on="1"/>
        <pt x="68" y="500" on="1"/>
        <pt x="582" y="500" on="1"/>
        <pt x="572" y="386" on="1"/>
        <pt x="480" y="386" on="1"/>
        <pt x="461" y="167" on="1"/>
        <pt x="460" y="158" on="0"/>
        <pt x="459" y="141" on="0"/>
        <pt x="459" y="139" on="1"/>
        <pt x="459" y="125" on="0"/>
        <pt x="472" y="110" on="0"/>
        <pt x="489" y="110" on="1"/>
        <pt x="497" y="110" on="0"/>
        <pt x="512" y="112" on="0"/>
        <pt x="516" y="113" on="1"/>
        <pt x="507" y="3" on="1"/>
        <pt x="496" y="1" on="0"/>
        <pt x="451" y="-4" on="0"/>
        <pt x="428" y="-4" on="1"/>
        <pt x="398" y="-4" on="0"/>
        <pt x="359" y="14" on="0"/>
        <pt x="336" y="45" on="0"/>
        <pt x="327" y="87" on="0"/>
        <pt x="327" y="111" on="1"/>
        <pt x="327" y="119" on="0"/>
        <pt x="328" y="144" on="0"/>
        <pt x="329" y="152" on="1"/>
        <pt x="349" y="386" on="1"/>
        <pt x="270" y="386" on="1"/>
        <pt x="237" y="0" on="1"/>
      </contour>
    </TTGlyph>
    <TTGlyph name="less" xMin="65" yMin="0" xMax="516" yMax="583">
      <contour>
        <pt x="65" y="0" on="1"/>
        <pt x="75" y="115" on="1"/>
        <pt x="475" y="115" on="1"/>
        <pt x="465" y="0" on="1"/>
      </contour>
      <contour>
        <pt x="88" y="264" on="1"/>
        <pt x="102" y="427" on="1"/>
        <pt x="516" y="583" on="1"/>
        <pt x="504" y="450" on="1"/>
        <pt x="206" y="347" on="1"/>
        <pt x="488" y="267" on="1"/>
        <pt x="476" y="136" on="1"/>
      </contour>
    </TTGlyph>
    <TTGlyph name="lessequal" xMin="61" yMin="244" xMax="222" yMax="374">
      <contour>
        <pt x="61" y="244" on="1"/>
        <pt x="72" y="374" on="1"/>
        <pt x="222" y="374" on="1"/>
        <pt x="211" y="244" on="1"/>
      </contour>
    </TTGlyph>
    <TTGlyph name="logicaland" xMin="61" yMin="244" xMax="222" yMax="374">
      <contour>
        <pt x="61" y="244" on="1"/>
        <pt x="72" y="374" on="1"/>
        <pt x="222" y="374" on="1"/>
        <pt x="211" y="244" on="1"/>
      </contour>
    </TTGlyph>
    <TTGlyph name="logicalnot" xMin="61" yMin="244" xMax="222" yMax="374">
      <contour>
        <pt x="61" y="244" on="1"/>
        <pt x="72" y="374" on="1"/>
        <pt x="222" y="374" on="1"/>
        <pt x="211" y="244" on="1"/>
      </contour>
    </TTGlyph>
    <TTGlyph name="lozenge" xMin="61" yMin="244" xMax="222" yMax="374">
      <contour>
        <pt x="61" y="244" on="1"/>
        <pt x="72" y="374" on="1"/>
        <pt x="222" y="374" on="1"/>
        <pt x="211" y="244" on="1"/>
      </contour>
    </TTGlyph>
    <TTGlyph name="lslash" xMin="61" yMin="244" xMax="222" yMax="374">
      <contour>
        <pt x="61" y="244" on="1"/>
        <pt x="72" y="374" on="1"/>
        <pt x="222" y="374" on="1"/>
        <pt x="211" y="244" on="1"/>
      </contour>
    </TTGlyph>
    <TTGlyph name="m" xMin="42" yMin="-9" xMax="456" yMax="709">
      <contour>
        <pt x="43" y="210" on="1"/>
        <pt x="48" y="269" on="0"/>
        <pt x="70" y="362" on="0"/>
        <pt x="114" y="426" on="0"/>
        <pt x="183" y="459" on="0"/>
        <pt x="235" y="459" on="1"/>
        <pt x="261" y="459" on="0"/>
        <pt x="305" y="444" on="0"/>
        <pt x="323" y="433" on="1"/>
        <pt x="324" y="443" on="0"/>
        <pt x="324" y="461" on="0"/>
        <pt x="324" y="470" on="1"/>
        <pt x="324" y="508" on="0"/>
        <pt x="314" y="558" on="0"/>
        <pt x="292" y="587" on="0"/>
        <pt x="256" y="599" on="0"/>
        <pt x="230" y="599" on="1"/>
        <pt x="195" y="599" on="0"/>
        <pt x="140" y="590" on="0"/>
        <pt x="120" y="585" on="1"/>
        <pt x="129" y="697" on="1"/>
        <pt x="137" y="699" on="0"/>
        <pt x="163" y="703" on="0"/>
        <pt x="194" y="707" on="0"/>
        <pt x="224" y="709" on="0"/>
        <pt x="236" y="709" on="1"/>
        <pt x="287" y="709" on="0"/>
        <pt x="369" y="686" on="0"/>
        <pt x="426" y="628" on="0"/>
        <pt x="456" y="527" on="0"/>
        <pt x="456" y="450" on="1"/>
        <pt x="456" y="447" on="0"/>
        <pt x="455" y="421" on="0"/>
        <pt x="454" y="391" on="0"/>
        <pt x="452" y="365" on="0"/>
        <pt x="452" y="361" on="1"/>
        <pt x="443" y="253" on="0"/>
        <pt x="410" y="110" on="0"/>
        <pt x="353" y="26" on="0"/>
        <pt x="269" y="-9" on="0"/>
        <pt x="207" y="-9" on="1"/>
        <pt x="183" y="-9" on="0"/>
        <pt x="126" y="7" on="0"/>
        <pt x="76" y="48" on="0"/>
        <pt x="42" y="120" on="0"/>
        <pt x="42" y="177" on="1"/>
        <pt x="42" y="185" on="0"/>
        <pt x="42" y="202" on="0"/>
      </contour>
      <contour>
        <pt x="249" y="351" on="1"/>
        <pt x="175" y="351" on="0"/>
        <pt x="175" y="175" on="1"/>
        <pt x="175" y="130" on="0"/>
        <pt x="201" y="101" on="0"/>
        <pt x="229" y="101" on="1"/>
        <pt x="246" y="101" on="0"/>
        <pt x="272" y="116" on="0"/>
        <pt x="293" y="165" on="0"/>
        <pt x="309" y="257" on="0"/>
        <pt x="316" y="334" on="1"/>
        <pt x="302" y="341" on="0"/>
        <pt x="269" y="351" on="0"/>
      </contour>
    </TTGlyph>
    <TTGlyph name="macron" xMin="61" yMin="244" xMax="222" yMax="374">
      <contour>
        <pt x="61" y="244" on="1"/>
        <pt x="72" y="374" on="1"/>
        <pt x="222" y="374" on="1"/>
        <pt x="211" y="244" on="1"/>
      </contour>
    </TTGlyph>
    <TTGlyph name="minus" xMin="61" yMin="244" xMax="222" yMax="374">
      <contour>
        <pt x="61" y="244" on="1"/>
        <pt x="72" y="374" on="1"/>
        <pt x="222" y="374" on="1"/>
        <pt x="211" y="244" on="1"/>
      </contour>
    </TTGlyph>
    <TTGlyph name="mu" xMin="61" yMin="244" xMax="222" yMax="374">
      <contour>
        <pt x="61" y="244" on="1"/>
        <pt x="72" y="374" on="1"/>
        <pt x="222" y="374" on="1"/>
        <pt x="211" y="244" on="1"/>
      </contour>
    </TTGlyph>
    <TTGlyph name="multiply" xMin="61" yMin="244" xMax="222" yMax="374">
      <contour>
        <pt x="61" y="244" on="1"/>
        <pt x="72" y="374" on="1"/>
        <pt x="222" y="374" on="1"/>
        <pt x="211" y="244" on="1"/>
      </contour>
    </TTGlyph>
    <TTGlyph name="n" xMin="-55" yMin="-242" xMax="406" yMax="829">
      <contour>
        <pt x="396" y="704" on="1"/>
        <pt x="381" y="708" on="0"/>
        <pt x="340" y="715" on="0"/>
        <pt x="313" y="715" on="1"/>
        <pt x="289" y="715" on="0"/>
        <pt x="268" y="690" on="0"/>
        <pt x="266" y="669" on="1"/>
        <pt x="201" y="-78" on="1"/>
        <pt x="197" y="-126" on="0"/>
        <pt x="173" y="-189" on="0"/>
        <pt x="131" y="-226" on="0"/>
        <pt x="70" y="-242" on="0"/>
        <pt x="28" y="-242" on="1"/>
        <pt x="4" y="-242" on="0"/>
        <pt x="-35" y="-239" on="0"/>
        <pt x="-55" y="-237" on="1"/>
        <pt x="-45" y="-125" on="1"/>
        <pt x="-33" y="-127" on="0"/>
        <pt x="4" y="-128" on="0"/>
        <pt x="16" y="-128" on="1"/>
        <pt x="43" y="-128" on="0"/>
        <pt x="65" y="-109" on="0"/>
        <pt x="67" y="-83" on="1"/>
        <pt x="132" y="660" on="1"/>
        <pt x="137" y="711" on="0"/>
        <pt x="161" y="777" on="0"/>
        <pt x="203" y="815" on="0"/>
        <pt x="261" y="829" on="0"/>
        <pt x="298" y="829" on="1"/>
        <pt x="330" y="829" on="0"/>
        <pt x="391" y="820" on="0"/>
        <pt x="406" y="817" on="1"/>
      </contour>
    </TTGlyph>
    <TTGlyph name="nine" xMin="61" yMin="244" xMax="222" yMax="374">
      <contour>
        <pt x="61" y="244" on="1"/>
        <pt x="72" y="374" on="1"/>
        <pt x="222" y="374" on="1"/>
        <pt x="211" y="244" on="1"/>
      </contour>
    </TTGlyph>
    <TTGlyph name="notequal" xMin="61" yMin="244" xMax="222" yMax="374">
      <contour>
        <pt x="61" y="244" on="1"/>
        <pt x="72" y="374" on="1"/>
        <pt x="222" y="374" on="1"/>
        <pt x="211" y="244" on="1"/>
      </contour>
    </TTGlyph>
    <TTGlyph name="ntilde" xMin="61" yMin="244" xMax="222" yMax="374">
      <contour>
        <pt x="61" y="244" on="1"/>
        <pt x="72" y="374" on="1"/>
        <pt x="222" y="374" on="1"/>
        <pt x="211" y="244" on="1"/>
      </contour>
    </TTGlyph>
    <TTGlyph name="numbersign" xMin="5" yMin="0" xMax="515" yMax="700">
      <contour>
        <pt x="5" y="0" on="1"/>
        <pt x="227" y="700" on="1"/>
        <pt x="422" y="700" on="1"/>
        <pt x="515" y="0" on="1"/>
      </contour>
      <contour>
        <pt x="317" y="594" on="1"/>
        <pt x="178" y="113" on="1"/>
        <pt x="366" y="113" on="1"/>
      </contour>
    </TTGlyph>
    <TTGlyph name="o" xMin="70" yMin="118" xMax="558" yMax="630">
      <contour>
        <pt x="376" y="302" on="1"/>
        <pt x="558" y="428" on="1"/>
        <pt x="545" y="281" on="1"/>
        <pt x="294" y="118" on="1"/>
        <pt x="70" y="281" on="1"/>
        <pt x="83" y="426" on="1"/>
        <pt x="242" y="298" on="1"/>
        <pt x="271" y="630" on="1"/>
        <pt x="407" y="630" on="1"/>
      </contour>
    </TTGlyph>
    <TTGlyph name="oacute" xMin="61" yMin="244" xMax="222" yMax="374">
      <contour>
        <pt x="61" y="244" on="1"/>
        <pt x="72" y="374" on="1"/>
        <pt x="222" y="374" on="1"/>
        <pt x="211" y="244" on="1"/>
      </contour>
    </TTGlyph>
    <TTGlyph name="ocircumflex" xMin="61" yMin="244" xMax="222" yMax="374">
      <contour>
        <pt x="61" y="244" on="1"/>
        <pt x="72" y="374" on="1"/>
        <pt x="222" y="374" on="1"/>
        <pt x="211" y="244" on="1"/>
      </contour>
    </TTGlyph>
    <TTGlyph name="odieresis" xMin="61" yMin="244" xMax="222" yMax="374">
      <contour>
        <pt x="61" y="244" on="1"/>
        <pt x="72" y="374" on="1"/>
        <pt x="222" y="374" on="1"/>
        <pt x="211" y="244" on="1"/>
      </contour>
    </TTGlyph>
    <TTGlyph name="oe" xMin="61" yMin="244" xMax="222" yMax="374">
      <contour>
        <pt x="61" y="244" on="1"/>
        <pt x="72" y="374" on="1"/>
        <pt x="222" y="374" on="1"/>
        <pt x="211" y="244" on="1"/>
      </contour>
    </TTGlyph>
    <TTGlyph name="ogonek" xMin="61" yMin="244" xMax="222" yMax="374">
      <contour>
        <pt x="61" y="244" on="1"/>
        <pt x="72" y="374" on="1"/>
        <pt x="222" y="374" on="1"/>
        <pt x="211" y="244" on="1"/>
      </contour>
    </TTGlyph>
    <TTGlyph name="ograve" xMin="61" yMin="244" xMax="222" yMax="374">
      <contour>
        <pt x="61" y="244" on="1"/>
        <pt x="72" y="374" on="1"/>
        <pt x="222" y="374" on="1"/>
        <pt x="211" y="244" on="1"/>
      </contour>
    </TTGlyph>
    <TTGlyph name="one" xMin="61" yMin="244" xMax="222" yMax="374">
      <contour>
        <pt x="61" y="244" on="1"/>
        <pt x="72" y="374" on="1"/>
        <pt x="222" y="374" on="1"/>
        <pt x="211" y="244" on="1"/>
      </contour>
    </TTGlyph>
    <TTGlyph name="onehalf" xMin="61" yMin="244" xMax="222" yMax="374">
      <contour>
        <pt x="61" y="244" on="1"/>
        <pt x="72" y="374" on="1"/>
        <pt x="222" y="374" on="1"/>
        <pt x="211" y="244" on="1"/>
      </contour>
    </TTGlyph>
    <TTGlyph name="onequarter" xMin="61" yMin="244" xMax="222" yMax="374">
      <contour>
        <pt x="61" y="244" on="1"/>
        <pt x="72" y="374" on="1"/>
        <pt x="222" y="374" on="1"/>
        <pt x="211" y="244" on="1"/>
      </contour>
    </TTGlyph>
    <TTGlyph name="onesuperior" xMin="61" yMin="244" xMax="222" yMax="374">
      <contour>
        <pt x="61" y="244" on="1"/>
        <pt x="72" y="374" on="1"/>
        <pt x="222" y="374" on="1"/>
        <pt x="211" y="244" on="1"/>
      </contour>
    </TTGlyph>
    <TTGlyph name="ordfeminine" xMin="61" yMin="244" xMax="222" yMax="374">
      <contour>
        <pt x="61" y="244" on="1"/>
        <pt x="72" y="374" on="1"/>
        <pt x="222" y="374" on="1"/>
        <pt x="211" y="244" on="1"/>
      </contour>
    </TTGlyph>
    <TTGlyph name="ordmasculine" xMin="61" yMin="244" xMax="222" yMax="374">
      <contour>
        <pt x="61" y="244" on="1"/>
        <pt x="72" y="374" on="1"/>
        <pt x="222" y="374" on="1"/>
        <pt x="211" y="244" on="1"/>
      </contour>
    </TTGlyph>
    <TTGlyph name="oslash" xMin="61" yMin="244" xMax="222" yMax="374">
      <contour>
        <pt x="61" y="244" on="1"/>
        <pt x="72" y="374" on="1"/>
        <pt x="222" y="374" on="1"/>
        <pt x="211" y="244" on="1"/>
      </contour>
    </TTGlyph>
    <TTGlyph name="otilde" xMin="61" yMin="244" xMax="222" yMax="374">
      <contour>
        <pt x="61" y="244" on="1"/>
        <pt x="72" y="374" on="1"/>
        <pt x="222" y="374" on="1"/>
        <pt x="211" y="244" on="1"/>
      </contour>
    </TTGlyph>
    <TTGlyph name="p" xMin="59" yMin="138" xMax="577" yMax="613">
      <contour>
        <pt x="243" y="312" on="1"/>
        <pt x="356" y="138" on="1"/>
        <pt x="202" y="138" on="1"/>
        <pt x="59" y="375" on="1"/>
        <pt x="243" y="613" on="1"/>
        <pt x="400" y="613" on="1"/>
        <pt x="258" y="438" on="1"/>
        <pt x="577" y="438" on="1"/>
        <pt x="566" y="312" on="1"/>
      </contour>
    </TTGlyph>
    <TTGlyph name="paragraph" xMin="75" yMin="-176" xMax="551" yMax="709">
      <contour>
        <pt x="323" y="0" on="1"/>
        <pt x="197" y="0" on="1"/>
        <pt x="227" y="354" on="1"/>
        <pt x="208" y="354" on="1"/>
        <pt x="187" y="354" on="0"/>
        <pt x="140" y="366" on="0"/>
        <pt x="101" y="398" on="0"/>
        <pt x="75" y="457" on="0"/>
        <pt x="75" y="503" on="1"/>
        <pt x="75" y="567" on="0"/>
        <pt x="105" y="647" on="0"/>
        <pt x="156" y="692" on="0"/>
        <pt x="224" y="709" on="0"/>
        <pt x="261" y="709" on="1"/>
        <pt x="286" y="709" on="0"/>
        <pt x="330" y="707" on="0"/>
        <pt x="347" y="705" on="1"/>
        <pt x="367" y="703" on="0"/>
        <pt x="384" y="700" on="1"/>
        <pt x="374" y="593" on="1"/>
        <pt x="354" y="597" on="0"/>
        <pt x="306" y="602" on="0"/>
        <pt x="291" y="602" on="1"/>
        <pt x="239" y="602" on="0"/>
        <pt x="199" y="567" on="0"/>
        <pt x="199" y="517" on="1"/>
        <pt x="199" y="486" on="0"/>
        <pt x="229" y="462" on="0"/>
        <pt x="258" y="462" on="1"/>
        <pt x="363" y="462" on="1"/>
      </contour>
      <contour>
        <pt x="488" y="-20" on="1"/>
        <pt x="484" y="-70" on="0"/>
        <pt x="463" y="-132" on="0"/>
        <pt x="426" y="-165" on="0"/>
        <pt x="368" y="-176" on="0"/>
        <pt x="326" y="-176" on="1"/>
        <pt x="303" y="-176" on="0"/>
        <pt x="262" y="-173" on="0"/>
        <pt x="242" y="-171" on="1"/>
        <pt x="253" y="-63" on="1"/>
        <pt x="266" y="-65" on="0"/>
        <pt x="305" y="-68" on="0"/>
        <pt x="315" y="-68" on="1"/>
        <pt x="342" y="-68" on="0"/>
        <pt x="363" y="-44" on="0"/>
        <pt x="365" y="-18" on="1"/>
        <pt x="428" y="700" on="1"/>
        <pt x="551" y="700" on="1"/>
      </contour>
    </TTGlyph>
    <TTGlyph name="parenleft" xMin="101" yMin="585" xMax="254" yMax="700">
      <contour>
        <pt x="101" y="585" on="1"/>
        <pt x="111" y="700" on="1"/>
        <pt x="254" y="700" on="1"/>
        <pt x="244" y="585" on="1"/>
      </contour>
    </TTGlyph>
    <TTGlyph name="parenright" xMin="70" yMin="523" xMax="304" yMax="767">
      <contour>
        <pt x="215" y="646" on="1"/>
        <pt x="216" y="651" on="0"/>
        <pt x="216" y="660" on="0"/>
        <pt x="216" y="664" on="1"/>
        <pt x="216" y="680" on="0"/>
        <pt x="205" y="695" on="0"/>
        <pt x="191" y="695" on="1"/>
        <pt x="171" y="695" on="0"/>
        <pt x="158" y="662" on="0"/>
        <pt x="158" y="628" on="1"/>
        <pt x="158" y="612" on="0"/>
        <pt x="169" y="597" on="0"/>
        <pt x="183" y="597" on="1"/>
        <pt x="200" y="597" on="0"/>
        <pt x="213" y="621" on="0"/>
      </contour>
      <contour>
        <pt x="303" y="645" on="1"/>
        <pt x="298" y="587" on="0"/>
        <pt x="241" y="523" on="0"/>
        <pt x="176" y="523" on="1"/>
        <pt x="124" y="523" on="0"/>
        <pt x="70" y="577" on="0"/>
        <pt x="70" y="627" on="1"/>
        <pt x="70" y="693" on="0"/>
        <pt x="130" y="767" on="0"/>
        <pt x="198" y="767" on="1"/>
        <pt x="249" y="767" on="0"/>
        <pt x="304" y="713" on="0"/>
        <pt x="304" y="663" on="1"/>
        <pt x="304" y="658" on="0"/>
        <pt x="304" y="650" on="0"/>
      </contour>
    </TTGlyph>
    <TTGlyph name="partialdiff" xMin="61" yMin="244" xMax="222" yMax="374">
      <contour>
        <pt x="61" y="244" on="1"/>
        <pt x="72" y="374" on="1"/>
        <pt x="222" y="374" on="1"/>
        <pt x="211" y="244" on="1"/>
      </contour>
    </TTGlyph>
    <TTGlyph name="percent" xMin="45" yMin="0" xMax="489" yMax="700">
      <contour>
        <pt x="330" y="0" on="1"/>
        <pt x="142" y="0" on="1"/>
        <pt x="45" y="350" on="1"/>
        <pt x="205" y="700" on="1"/>
        <pt x="391" y="700" on="1"/>
        <pt x="489" y="350" on="1"/>
      </contour>
      <contour>
        <pt x="291" y="597" on="1"/>
        <pt x="185" y="350" on="1"/>
        <pt x="244" y="103" on="1"/>
        <pt x="349" y="350" on="1"/>
      </contour>
    </TTGlyph>
    <TTGlyph name="period" xMin="55" yMin="0" xMax="231" yMax="500">
      <contour>
        <pt x="55" y="0" on="1"/>
        <pt x="98" y="500" on="1"/>
        <pt x="231" y="500" on="1"/>
        <pt x="188" y="0" on="1"/>
      </contour>
    </TTGlyph>
    <TTGlyph name="periodcentered" xMin="61" yMin="244" xMax="222" yMax="374">
      <contour>
        <pt x="61" y="244" on="1"/>
        <pt x="72" y="374" on="1"/>
        <pt x="222" y="374" on="1"/>
        <pt x="211" y="244" on="1"/>
      </contour>
    </TTGlyph>
    <TTGlyph name="perthousand" xMin="61" yMin="244" xMax="222" yMax="374">
      <contour>
        <pt x="61" y="244" on="1"/>
        <pt x="72" y="374" on="1"/>
        <pt x="222" y="374" on="1"/>
        <pt x="211" y="244" on="1"/>
      </contour>
    </TTGlyph>
    <TTGlyph name="pi" xMin="61" yMin="244" xMax="222" yMax="374">
      <contour>
        <pt x="61" y="244" on="1"/>
        <pt x="72" y="374" on="1"/>
        <pt x="222" y="374" on="1"/>
        <pt x="211" y="244" on="1"/>
      </contour>
    </TTGlyph>
    <TTGlyph name="plus" xMin="47" yMin="-198" xMax="253" yMax="60">
      <contour>
        <pt x="246" y="-188" on="1"/>
        <pt x="239" y="-190" on="0"/>
        <pt x="217" y="-193" on="0"/>
        <pt x="193" y="-196" on="0"/>
        <pt x="170" y="-198" on="0"/>
        <pt x="161" y="-198" on="1"/>
        <pt x="97" y="-198" on="0"/>
        <pt x="47" y="-146" on="0"/>
        <pt x="47" y="-95" on="1"/>
        <pt x="47" y="-37" on="0"/>
        <pt x="90" y="36" on="0"/>
        <pt x="114" y="60" on="1"/>
        <pt x="214" y="60" on="1"/>
        <pt x="189" y="27" on="0"/>
        <pt x="159" y="-42" on="0"/>
        <pt x="159" y="-60" on="1"/>
        <pt x="159" y="-77" on="0"/>
        <pt x="176" y="-100" on="0"/>
        <pt x="194" y="-100" on="1"/>
        <pt x="205" y="-100" on="0"/>
        <pt x="239" y="-95" on="0"/>
        <pt x="253" y="-93" on="1"/>
      </contour>
    </TTGlyph>
    <TTGlyph name="plusminus" xMin="61" yMin="244" xMax="222" yMax="374">
      <contour>
        <pt x="61" y="244" on="1"/>
        <pt x="72" y="374" on="1"/>
        <pt x="222" y="374" on="1"/>
        <pt x="211" y="244" on="1"/>
      </contour>
    </TTGlyph>
    <TTGlyph name="product" xMin="61" yMin="244" xMax="222" yMax="374">
      <contour>
        <pt x="61" y="244" on="1"/>
        <pt x="72" y="374" on="1"/>
        <pt x="222" y="374" on="1"/>
        <pt x="211" y="244" on="1"/>
      </contour>
    </TTGlyph>
    <TTGlyph name="q" xMin="97" yMin="148" xMax="558" yMax="609">
      <contour>
        <pt x="409" y="376" on="1"/>
        <pt x="459" y="591" on="1"/>
        <pt x="558" y="484" on="1"/>
        <pt x="481" y="201" on="1"/>
        <pt x="192" y="148" on="1"/>
        <pt x="97" y="253" on="1"/>
        <pt x="311" y="287" on="1"/>
        <pt x="101" y="517" on="1"/>
        <pt x="201" y="609" on="1"/>
      </contour>
    </TTGlyph>
    <TTGlyph name="question" xMin="33" yMin="28" xMax="577" yMax="572">
      <contour>
        <pt x="105" y="185" on="1"/>
        <pt x="94" y="210" on="0"/>
        <pt x="85" y="268" on="0"/>
        <pt x="85" y="300" on="1"/>
        <pt x="85" y="365" on="0"/>
        <pt x="106" y="414" on="1"/>
        <pt x="33" y="487" on="1"/>
        <pt x="118" y="572" on="1"/>
        <pt x="184" y="506" on="1"/>
        <pt x="235" y="537" on="0"/>
        <pt x="305" y="537" on="1"/>
        <pt x="373" y="537" on="0"/>
        <pt x="426" y="506" on="1"/>
        <pt x="492" y="572" on="1"/>
        <pt x="577" y="487" on="1"/>
        <pt x="509" y="419" on="1"/>
        <pt x="535" y="367" on="0"/>
        <pt x="535" y="300" on="1"/>
        <pt x="535" y="234" on="0"/>
        <pt x="509" y="180" on="1"/>
        <pt x="577" y="113" on="1"/>
        <pt x="492" y="28" on="1"/>
        <pt x="427" y="92" on="1"/>
        <pt x="377" y="63" on="0"/>
        <pt x="305" y="63" on="1"/>
        <pt x="232" y="63" on="0"/>
        <pt x="182" y="92" on="1"/>
        <pt x="118" y="28" on="1"/>
        <pt x="33" y="113" on="1"/>
      </contour>
      <contour>
        <pt x="403" y="300" on="1"/>
        <pt x="403" y="356" on="0"/>
        <pt x="355" y="430" on="0"/>
        <pt x="305" y="430" on="1"/>
        <pt x="255" y="430" on="0"/>
        <pt x="207" y="356" on="0"/>
        <pt x="207" y="300" on="1"/>
        <pt x="207" y="244" on="0"/>
        <pt x="255" y="170" on="0"/>
        <pt x="305" y="170" on="1"/>
        <pt x="330" y="170" on="0"/>
        <pt x="367" y="190" on="0"/>
        <pt x="391" y="225" on="0"/>
        <pt x="403" y="272" on="0"/>
      </contour>
    </TTGlyph>
    <TTGlyph name="questiondown" xMin="61" yMin="244" xMax="222" yMax="374">
      <contour>
        <pt x="61" y="244" on="1"/>
        <pt x="72" y="374" on="1"/>
        <pt x="222" y="374" on="1"/>
        <pt x="211" y="244" on="1"/>
      </contour>
    </TTGlyph>
    <TTGlyph name="quotedbl" xMin="76" yMin="139" xMax="464" yMax="466">
      <contour>
        <pt x="101" y="433" on="1"/>
        <pt x="138" y="454" on="0"/>
        <pt x="187" y="466" on="0"/>
        <pt x="209" y="466" on="1"/>
        <pt x="231" y="466" on="0"/>
        <pt x="271" y="454" on="0"/>
        <pt x="309" y="439" on="0"/>
        <pt x="347" y="427" on="0"/>
        <pt x="366" y="427" on="1"/>
        <pt x="392" y="427" on="0"/>
        <pt x="441" y="447" on="0"/>
        <pt x="464" y="461" on="1"/>
        <pt x="454" y="341" on="1"/>
        <pt x="430" y="326" on="0"/>
        <pt x="375" y="308" on="0"/>
        <pt x="347" y="308" on="1"/>
        <pt x="324" y="308" on="0"/>
        <pt x="285" y="321" on="0"/>
        <pt x="249" y="336" on="0"/>
        <pt x="212" y="349" on="0"/>
        <pt x="191" y="349" on="1"/>
        <pt x="165" y="349" on="0"/>
        <pt x="114" y="327" on="0"/>
        <pt x="91" y="313" on="1"/>
      </contour>
      <contour>
        <pt x="86" y="264" on="1"/>
        <pt x="123" y="285" on="0"/>
        <pt x="172" y="297" on="0"/>
        <pt x="194" y="297" on="1"/>
        <pt x="216" y="297" on="0"/>
        <pt x="256" y="285" on="0"/>
        <pt x="294" y="270" on="0"/>
        <pt x="332" y="258" on="0"/>
        <pt x="351" y="258" on="1"/>
        <pt x="377" y="258" on="0"/>
        <pt x="426" y="278" on="0"/>
        <pt x="449" y="292" on="1"/>
        <pt x="439" y="172" on="1"/>
        <pt x="415" y="157" on="0"/>
        <pt x="360" y="139" on="0"/>
        <pt x="332" y="139" on="1"/>
        <pt x="309" y="139" on="0"/>
        <pt x="270" y="152" on="0"/>
        <pt x="234" y="167" on="0"/>
        <pt x="197" y="180" on="0"/>
        <pt x="176" y="180" on="1"/>
        <pt x="150" y="180" on="0"/>
        <pt x="99" y="158" on="0"/>
        <pt x="76" y="144" on="1"/>
      </contour>
    </TTGlyph>
    <TTGlyph name="quotedblbase" xMin="61" yMin="244" xMax="222" yMax="374">
      <contour>
        <pt x="61" y="244" on="1"/>
        <pt x="72" y="374" on="1"/>
        <pt x="222" y="374" on="1"/>
        <pt x="211" y="244" on="1"/>
      </contour>
    </TTGlyph>
    <TTGlyph name="quotedblleft" xMin="61" yMin="244" xMax="222" yMax="374">
      <contour>
        <pt x="61" y="244" on="1"/>
        <pt x="72" y="374" on="1"/>
        <pt x="222" y="374" on="1"/>
        <pt x="211" y="244" on="1"/>
      </contour>
    </TTGlyph>
    <TTGlyph name="quotedblright" xMin="61" yMin="244" xMax="222" yMax="374">
      <contour>
        <pt x="61" y="244" on="1"/>
        <pt x="72" y="374" on="1"/>
        <pt x="222" y="374" on="1"/>
        <pt x="211" y="244" on="1"/>
      </contour>
    </TTGlyph>
    <TTGlyph name="quoteleft" xMin="61" yMin="244" xMax="222" yMax="374">
      <contour>
        <pt x="61" y="244" on="1"/>
        <pt x="72" y="374" on="1"/>
        <pt x="222" y="374" on="1"/>
        <pt x="211" y="244" on="1"/>
      </contour>
    </TTGlyph>
    <TTGlyph name="quoteright" xMin="61" yMin="244" xMax="222" yMax="374">
      <contour>
        <pt x="61" y="244" on="1"/>
        <pt x="72" y="374" on="1"/>
        <pt x="222" y="374" on="1"/>
        <pt x="211" y="244" on="1"/>
      </contour>
    </TTGlyph>
    <TTGlyph name="quotesinglbase" xMin="61" yMin="244" xMax="222" yMax="374">
      <contour>
        <pt x="61" y="244" on="1"/>
        <pt x="72" y="374" on="1"/>
        <pt x="222" y="374" on="1"/>
        <pt x="211" y="244" on="1"/>
      </contour>
    </TTGlyph>
    <TTGlyph name="quotesingle" xMin="61" yMin="244" xMax="222" yMax="374">
      <contour>
        <pt x="61" y="244" on="1"/>
        <pt x="72" y="374" on="1"/>
        <pt x="222" y="374" on="1"/>
        <pt x="211" y="244" on="1"/>
      </contour>
    </TTGlyph>
    <TTGlyph name="r" xMin="98" yMin="148" xMax="562" yMax="608">
      <contour>
        <pt x="309" y="285" on="1"/>
        <pt x="518" y="254" on="1"/>
        <pt x="404" y="148" on="1"/>
        <pt x="126" y="200" on="1"/>
        <pt x="98" y="484" on="1"/>
        <pt x="216" y="591" on="1"/>
        <pt x="231" y="379" on="1"/>
        <pt x="478" y="608" on="1"/>
        <pt x="562" y="516" on="1"/>
      </contour>
    </TTGlyph>
    <TTGlyph name="radical" xMin="61" yMin="244" xMax="222" yMax="374">
      <contour>
        <pt x="61" y="244" on="1"/>
        <pt x="72" y="374" on="1"/>
        <pt x="222" y="374" on="1"/>
        <pt x="211" y="244" on="1"/>
      </contour>
    </TTGlyph>
    <TTGlyph name="registered" xMin="61" yMin="244" xMax="222" yMax="374">
      <contour>
        <pt x="61" y="244" on="1"/>
        <pt x="72" y="374" on="1"/>
        <pt x="222" y="374" on="1"/>
        <pt x="211" y="244" on="1"/>
      </contour>
    </TTGlyph>
    <TTGlyph name="ring" xMin="61" yMin="244" xMax="222" yMax="374">
      <contour>
        <pt x="61" y="244" on="1"/>
        <pt x="72" y="374" on="1"/>
        <pt x="222" y="374" on="1"/>
        <pt x="211" y="244" on="1"/>
      </contour>
    </TTGlyph>
    <TTGlyph name="s" xMin="80" yMin="0" xMax="741" yMax="700">
      <contour>
        <pt x="80" y="0" on="1"/>
        <pt x="141" y="700" on="1"/>
        <pt x="741" y="700" on="1"/>
        <pt x="680" y="0" on="1"/>
      </contour>
    </TTGlyph>
    <TTGlyph name="scaron" xMin="61" yMin="244" xMax="222" yMax="374">
      <contour>
        <pt x="61" y="244" on="1"/>
        <pt x="72" y="374" on="1"/>
        <pt x="222" y="374" on="1"/>
        <pt x="211" y="244" on="1"/>
      </contour>
    </TTGlyph>
    <TTGlyph name="section" xMin="61" yMin="244" xMax="222" yMax="374">
      <contour>
        <pt x="61" y="244" on="1"/>
        <pt x="72" y="374" on="1"/>
        <pt x="222" y="374" on="1"/>
        <pt x="211" y="244" on="1"/>
      </contour>
    </TTGlyph>
    <TTGlyph name="semicolon" xMin="61" yMin="244" xMax="222" yMax="374">
      <contour>
        <pt x="61" y="244" on="1"/>
        <pt x="72" y="374" on="1"/>
        <pt x="222" y="374" on="1"/>
        <pt x="211" y="244" on="1"/>
      </contour>
    </TTGlyph>
    <TTGlyph name="seven" xMin="61" yMin="244" xMax="222" yMax="374">
      <contour>
        <pt x="61" y="244" on="1"/>
        <pt x="72" y="374" on="1"/>
        <pt x="222" y="374" on="1"/>
        <pt x="211" y="244" on="1"/>
      </contour>
    </TTGlyph>
    <TTGlyph name="six" xMin="61" yMin="244" xMax="222" yMax="374">
      <contour>
        <pt x="61" y="244" on="1"/>
        <pt x="72" y="374" on="1"/>
        <pt x="222" y="374" on="1"/>
        <pt x="211" y="244" on="1"/>
      </contour>
    </TTGlyph>
    <TTGlyph name="slash" xMin="-118" yMin="-100" xMax="389" yMax="810">
      <contour>
        <pt x="0" y="-100" on="1"/>
        <pt x="-118" y="-100" on="1"/>
        <pt x="270" y="810" on="1"/>
        <pt x="389" y="810" on="1"/>
      </contour>
    </TTGlyph>
    <TTGlyph name="sterling" xMin="61" yMin="244" xMax="222" yMax="374">
      <contour>
        <pt x="61" y="244" on="1"/>
        <pt x="72" y="374" on="1"/>
        <pt x="222" y="374" on="1"/>
        <pt x="211" y="244" on="1"/>
      </contour>
    </TTGlyph>
    <TTGlyph name="summation" xMin="61" yMin="244" xMax="222" yMax="374">
      <contour>
        <pt x="61" y="244" on="1"/>
        <pt x="72" y="374" on="1"/>
        <pt x="222" y="374" on="1"/>
        <pt x="211" y="244" on="1"/>
      </contour>
    </TTGlyph>
    <TTGlyph name="t" xMin="65" yMin="-170" xMax="754" yMax="850">
      <contour>
        <pt x="65" y="-170" on="1"/>
        <pt x="154" y="850" on="1"/>
        <pt x="754" y="850" on="1"/>
        <pt x="665" y="-170" on="1"/>
      </contour>
    </TTGlyph>
    <TTGlyph name="thorn" xMin="61" yMin="244" xMax="222" yMax="374">
      <contour>
        <pt x="61" y="244" on="1"/>
        <pt x="72" y="374" on="1"/>
        <pt x="222" y="374" on="1"/>
        <pt x="211" y="244" on="1"/>
      </contour>
    </TTGlyph>
    <TTGlyph name="three" xMin="61" yMin="244" xMax="222" yMax="374">
      <contour>
        <pt x="61" y="244" on="1"/>
        <pt x="72" y="374" on="1"/>
        <pt x="222" y="374" on="1"/>
        <pt x="211" y="244" on="1"/>
      </contour>
    </TTGlyph>
    <TTGlyph name="threequarters" xMin="61" yMin="244" xMax="222" yMax="374">
      <contour>
        <pt x="61" y="244" on="1"/>
        <pt x="72" y="374" on="1"/>
        <pt x="222" y="374" on="1"/>
        <pt x="211" y="244" on="1"/>
      </contour>
    </TTGlyph>
    <TTGlyph name="threesuperior" xMin="61" yMin="244" xMax="222" yMax="374">
      <contour>
        <pt x="61" y="244" on="1"/>
        <pt x="72" y="374" on="1"/>
        <pt x="222" y="374" on="1"/>
        <pt x="211" y="244" on="1"/>
      </contour>
    </TTGlyph>
    <TTGlyph name="tilde" xMin="61" yMin="244" xMax="222" yMax="374">
      <contour>
        <pt x="61" y="244" on="1"/>
        <pt x="72" y="374" on="1"/>
        <pt x="222" y="374" on="1"/>
        <pt x="211" y="244" on="1"/>
      </contour>
    </TTGlyph>
    <TTGlyph name="trademark" xMin="61" yMin="244" xMax="222" yMax="374">
      <contour>
        <pt x="61" y="244" on="1"/>
        <pt x="72" y="374" on="1"/>
        <pt x="222" y="374" on="1"/>
        <pt x="211" y="244" on="1"/>
      </contour>
    </TTGlyph>
    <TTGlyph name="two" xMin="61" yMin="244" xMax="222" yMax="374">
      <contour>
        <pt x="61" y="244" on="1"/>
        <pt x="72" y="374" on="1"/>
        <pt x="222" y="374" on="1"/>
        <pt x="211" y="244" on="1"/>
      </contour>
    </TTGlyph>
    <TTGlyph name="twosuperior" xMin="61" yMin="244" xMax="222" yMax="374">
      <contour>
        <pt x="61" y="244" on="1"/>
        <pt x="72" y="374" on="1"/>
        <pt x="222" y="374" on="1"/>
        <pt x="211" y="244" on="1"/>
      </contour>
    </TTGlyph>
    <TTGlyph name="u" xMin="57" yMin="-9" xMax="478" yMax="750">
      <contour>
        <pt x="58" y="210" on="1"/>
        <pt x="63" y="269" on="0"/>
        <pt x="87" y="365" on="0"/>
        <pt x="132" y="433" on="0"/>
        <pt x="202" y="469" on="0"/>
        <pt x="254" y="469" on="1"/>
        <pt x="279" y="469" on="0"/>
        <pt x="323" y="458" on="0"/>
        <pt x="342" y="448" on="1"/>
        <pt x="340" y="489" on="0"/>
        <pt x="322" y="541" on="0"/>
        <pt x="308" y="558" on="1"/>
        <pt x="282" y="516" on="1"/>
        <pt x="175" y="516" on="1"/>
        <pt x="225" y="595" on="1"/>
        <pt x="205" y="597" on="0"/>
        <pt x="162" y="597" on="0"/>
        <pt x="139" y="597" on="1"/>
        <pt x="149" y="709" on="1"/>
        <pt x="188" y="709" on="0"/>
        <pt x="260" y="706" on="0"/>
        <pt x="292" y="701" on="1"/>
        <pt x="323" y="750" on="1"/>
        <pt x="430" y="750" on="1"/>
        <pt x="380" y="672" on="1"/>
        <pt x="427" y="646" on="0"/>
        <pt x="478" y="537" on="0"/>
        <pt x="478" y="439" on="1"/>
        <pt x="478" y="421" on="0"/>
        <pt x="476" y="382" on="0"/>
        <pt x="474" y="361" on="1"/>
        <pt x="465" y="253" on="0"/>
        <pt x="431" y="110" on="0"/>
        <pt x="373" y="26" on="0"/>
        <pt x="287" y="-9" on="0"/>
        <pt x="225" y="-9" on="1"/>
        <pt x="201" y="-9" on="0"/>
        <pt x="143" y="7" on="0"/>
        <pt x="92" y="48" on="0"/>
        <pt x="57" y="121" on="0"/>
        <pt x="57" y="178" on="1"/>
        <pt x="57" y="186" on="0"/>
        <pt x="57" y="202" on="0"/>
      </contour>
      <contour>
        <pt x="268" y="361" on="1"/>
        <pt x="231" y="361" on="0"/>
        <pt x="190" y="263" on="0"/>
        <pt x="190" y="179" on="1"/>
        <pt x="190" y="132" on="0"/>
        <pt x="219" y="101" on="0"/>
        <pt x="247" y="101" on="1"/>
        <pt x="264" y="101" on="0"/>
        <pt x="292" y="117" on="0"/>
        <pt x="314" y="168" on="0"/>
        <pt x="332" y="265" on="0"/>
        <pt x="339" y="346" on="1"/>
        <pt x="325" y="352" on="0"/>
        <pt x="288" y="361" on="0"/>
      </contour>
    </TTGlyph>
    <TTGlyph name="uacute" xMin="61" yMin="244" xMax="222" yMax="374">
      <contour>
        <pt x="61" y="244" on="1"/>
        <pt x="72" y="374" on="1"/>
        <pt x="222" y="374" on="1"/>
        <pt x="211" y="244" on="1"/>
      </contour>
    </TTGlyph>
    <TTGlyph name="ucircumflex" xMin="61" yMin="244" xMax="222" yMax="374">
      <contour>
        <pt x="61" y="244" on="1"/>
        <pt x="72" y="374" on="1"/>
        <pt x="222" y="374" on="1"/>
        <pt x="211" y="244" on="1"/>
      </contour>
    </TTGlyph>
    <TTGlyph name="udieresis" xMin="61" yMin="244" xMax="222" yMax="374">
      <contour>
        <pt x="61" y="244" on="1"/>
        <pt x="72" y="374" on="1"/>
        <pt x="222" y="374" on="1"/>
        <pt x="211" y="244" on="1"/>
      </contour>
    </TTGlyph>
    <TTGlyph name="ugrave" xMin="61" yMin="244" xMax="222" yMax="374">
      <contour>
        <pt x="61" y="244" on="1"/>
        <pt x="72" y="374" on="1"/>
        <pt x="222" y="374" on="1"/>
        <pt x="211" y="244" on="1"/>
      </contour>
    </TTGlyph>
    <TTGlyph name="underscore" xMin="-45" yMin="-177" xMax="511" yMax="709">
      <contour>
        <pt x="466" y="-13" on="1"/>
        <pt x="462" y="-63" on="0"/>
        <pt x="438" y="-127" on="0"/>
        <pt x="397" y="-163" on="0"/>
        <pt x="336" y="-177" on="0"/>
        <pt x="294" y="-177" on="1"/>
        <pt x="280" y="-177" on="0"/>
        <pt x="253" y="-174" on="0"/>
        <pt x="233" y="-172" on="1"/>
        <pt x="243" y="-60" on="1"/>
        <pt x="256" y="-62" on="0"/>
        <pt x="278" y="-63" on="0"/>
        <pt x="282" y="-63" on="1"/>
        <pt x="309" y="-63" on="0"/>
        <pt x="331" y="-44" on="0"/>
        <pt x="333" y="-18" on="1"/>
        <pt x="368" y="387" on="1"/>
        <pt x="247" y="387" on="1"/>
        <pt x="212" y="-13" on="1"/>
        <pt x="208" y="-63" on="0"/>
        <pt x="185" y="-126" on="0"/>
        <pt x="143" y="-163" on="0"/>
        <pt x="81" y="-177" on="0"/>
        <pt x="39" y="-177" on="1"/>
        <pt x="16" y="-177" on="0"/>
        <pt x="-25" y="-174" on="0"/>
        <pt x="-45" y="-172" on="1"/>
        <pt x="-35" y="-59" on="1"/>
        <pt x="-22" y="-61" on="0"/>
        <pt x="16" y="-63" on="0"/>
        <pt x="27" y="-63" on="1"/>
        <pt x="54" y="-63" on="0"/>
        <pt x="76" y="-44" on="0"/>
        <pt x="78" y="-18" on="1"/>
        <pt x="113" y="387" on="1"/>
        <pt x="48" y="387" on="1"/>
        <pt x="58" y="500" on="1"/>
        <pt x="123" y="500" on="1"/>
        <pt x="127" y="540" on="1"/>
        <pt x="132" y="591" on="0"/>
        <pt x="157" y="657" on="0"/>
        <pt x="202" y="695" on="0"/>
        <pt x="267" y="709" on="0"/>
        <pt x="313" y="709" on="1"/>
        <pt x="343" y="709" on="0"/>
        <pt x="400" y="705" on="0"/>
        <pt x="449" y="699" on="0"/>
        <pt x="484" y="693" on="0"/>
        <pt x="491" y="691" on="1"/>
        <pt x="481" y="578" on="1"/>
        <pt x="465" y="582" on="0"/>
        <pt x="382" y="595" on="0"/>
        <pt x="328" y="595" on="1"/>
        <pt x="306" y="595" on="0"/>
        <pt x="280" y="589" on="0"/>
        <pt x="266" y="578" on="0"/>
        <pt x="262" y="561" on="0"/>
        <pt x="261" y="549" on="1"/>
        <pt x="257" y="500" on="1"/>
        <pt x="511" y="500" on="1"/>
      </contour>
    </TTGlyph>
    <TTGlyph name="uni00AD" xMin="86" yMin="245" xMax="441" yMax="360">
      <contour>
        <pt x="86" y="245" on="1"/>
        <pt x="96" y="360" on="1"/>
        <pt x="441" y="360" on="1"/>
        <pt x="431" y="245" on="1"/>
      </contour>
    </TTGlyph>
    <TTGlyph name="uni2219" xMin="61" yMin="244" xMax="222" yMax="374">
      <contour>
        <pt x="61" y="244" on="1"/>
        <pt x="72" y="374" on="1"/>
        <pt x="222" y="374" on="1"/>
        <pt x="211" y="244" on="1"/>
      </contour>
    </TTGlyph>
    <TTGlyph name="uni2224" xMin="61" yMin="244" xMax="222" yMax="374">
      <contour>
        <pt x="61" y="244" on="1"/>
        <pt x="72" y="374" on="1"/>
        <pt x="222" y="374" on="1"/>
        <pt x="211" y="244" on="1"/>
      </contour>
    </TTGlyph>
    <TTGlyph name="uni25AF" xMin="50" yMin="0" xMax="450" yMax="707">
      <contour>
        <pt x="50" y="707" on="1"/>
        <pt x="450" y="707" on="1"/>
        <pt x="450" y="0" on="1"/>
        <pt x="50" y="0" on="1"/>
      </contour>
      <contour>
        <pt x="400" y="50" on="1"/>
        <pt x="400" y="657" on="1"/>
        <pt x="100" y="657" on="1"/>
        <pt x="100" y="50" on="1"/>
      </contour>
    </TTGlyph>
    <TTGlyph name="v" xMin="40" yMin="-5" xMax="308" yMax="700">
      <contour>
        <pt x="265" y="3" on="1"/>
        <pt x="254" y="1" on="0"/>
        <pt x="202" y="-5" on="0"/>
        <pt x="173" y="-5" on="1"/>
        <pt x="116" y="-5" on="0"/>
        <pt x="75" y="47" on="0"/>
        <pt x="75" y="101" on="1"/>
        <pt x="75" y="112" on="0"/>
        <pt x="76" y="135" on="0"/>
        <pt x="77" y="148" on="1"/>
        <pt x="92" y="319" on="1"/>
        <pt x="40" y="290" on="1"/>
        <pt x="50" y="408" on="1"/>
        <pt x="102" y="438" on="1"/>
        <pt x="126" y="700" on="1"/>
        <pt x="259" y="700" on="1"/>
        <pt x="243" y="518" on="1"/>
        <pt x="308" y="555" on="1"/>
        <pt x="298" y="435" on="1"/>
        <pt x="232" y="398" on="1"/>
        <pt x="211" y="153" on="1"/>
        <pt x="211" y="149" on="0"/>
        <pt x="210" y="142" on="0"/>
        <pt x="210" y="139" on="1"/>
        <pt x="210" y="123" on="0"/>
        <pt x="222" y="110" on="0"/>
        <pt x="238" y="110" on="1"/>
        <pt x="249" y="110" on="0"/>
        <pt x="270" y="113" on="0"/>
        <pt x="274" y="114" on="1"/>
      </contour>
    </TTGlyph>
    <TTGlyph name="w" xMin="40" yMin="-170" xMax="485" yMax="700">
      <contour>
        <pt x="40" y="-170" on="1"/>
        <pt x="116" y="700" on="1"/>
        <pt x="249" y="700" on="1"/>
        <pt x="173" y="-170" on="1"/>
      </contour>
      <contour>
        <pt x="483" y="283" on="1"/>
        <pt x="476" y="199" on="0"/>
        <pt x="441" y="87" on="0"/>
        <pt x="380" y="19" on="0"/>
        <pt x="289" y="-9" on="0"/>
        <pt x="225" y="-9" on="1"/>
        <pt x="202" y="-9" on="0"/>
        <pt x="165" y="-7" on="0"/>
        <pt x="132" y="-3" on="0"/>
        <pt x="97" y="5" on="0"/>
        <pt x="76" y="10" on="1"/>
        <pt x="150" y="112" on="1"/>
        <pt x="163" y="110" on="0"/>
        <pt x="220" y="105" on="0"/>
        <pt x="244" y="105" on="1"/>
        <pt x="265" y="105" on="0"/>
        <pt x="299" y="118" on="0"/>
        <pt x="326" y="155" on="0"/>
        <pt x="345" y="220" on="0"/>
        <pt x="349" y="272" on="1"/>
        <pt x="351" y="285" on="0"/>
        <pt x="351" y="306" on="0"/>
        <pt x="351" y="316" on="1"/>
        <pt x="351" y="363" on="0"/>
        <pt x="327" y="395" on="0"/>
        <pt x="302" y="395" on="1"/>
        <pt x="280" y="395" on="0"/>
        <pt x="247" y="369" on="0"/>
        <pt x="225" y="331" on="0"/>
        <pt x="212" y="286" on="0"/>
        <pt x="210" y="268" on="1"/>
        <pt x="129" y="286" on="1"/>
        <pt x="146" y="331" on="0"/>
        <pt x="184" y="412" on="0"/>
        <pt x="235" y="473" on="0"/>
        <pt x="302" y="509" on="0"/>
        <pt x="347" y="509" on="1"/>
        <pt x="419" y="509" on="0"/>
        <pt x="485" y="420" on="0"/>
        <pt x="485" y="332" on="1"/>
        <pt x="485" y="321" on="0"/>
        <pt x="485" y="296" on="0"/>
      </contour>
    </TTGlyph>
    <TTGlyph name="x" xMin="29" yMin="-9" xMax="466" yMax="716">
      <contour>
        <pt x="381" y="175" on="1"/>
        <pt x="381" y="120" on="0"/>
        <pt x="349" y="49" on="0"/>
        <pt x="292" y="7" on="0"/>
        <pt x="212" y="-9" on="0"/>
        <pt x="165" y="-9" on="1"/>
        <pt x="146" y="-9" on="0"/>
        <pt x="106" y="-6" on="0"/>
        <pt x="70" y="-1" on="0"/>
        <pt x="39" y="4" on="0"/>
        <pt x="29" y="7" on="1"/>
        <pt x="39" y="120" on="1"/>
        <pt x="59" y="115" on="0"/>
        <pt x="122" y="103" on="0"/>
        <pt x="157" y="103" on="1"/>
        <pt x="196" y="103" on="0"/>
        <pt x="243" y="124" on="0"/>
        <pt x="243" y="156" on="1"/>
        <pt x="243" y="175" on="0"/>
        <pt x="218" y="193" on="0"/>
        <pt x="184" y="200" on="1"/>
        <pt x="113" y="214" on="0"/>
        <pt x="56" y="285" on="0"/>
        <pt x="56" y="333" on="1"/>
        <pt x="56" y="430" on="0"/>
        <pt x="165" y="509" on="0"/>
        <pt x="274" y="509" on="1"/>
        <pt x="290" y="509" on="0"/>
        <pt x="326" y="506" on="0"/>
        <pt x="359" y="501" on="0"/>
        <pt x="386" y="496" on="0"/>
        <pt x="393" y="494" on="1"/>
        <pt x="383" y="380" on="1"/>
        <pt x="360" y="387" on="0"/>
        <pt x="306" y="397" on="0"/>
        <pt x="265" y="397" on="1"/>
        <pt x="226" y="397" on="0"/>
        <pt x="193" y="375" on="0"/>
        <pt x="193" y="350" on="1"/>
        <pt x="193" y="333" on="0"/>
        <pt x="224" y="320" on="0"/>
        <pt x="254" y="313" on="1"/>
        <pt x="327" y="297" on="0"/>
        <pt x="381" y="226" on="0"/>
      </contour>
      <contour>
        <pt x="217" y="716" on="1"/>
        <pt x="261" y="642" on="1"/>
        <pt x="317" y="716" on="1"/>
        <pt x="466" y="716" on="1"/>
        <pt x="332" y="581" on="1"/>
        <pt x="184" y="581" on="1"/>
        <pt x="73" y="716" on="1"/>
      </contour>
    </TTGlyph>
    <TTGlyph name="y" xMin="53" yMin="-177" xMax="506" yMax="715">
      <contour>
        <pt x="213" y="580" on="1"/>
        <pt x="324" y="715" on="1"/>
        <pt x="488" y="715" on="1"/>
        <pt x="324" y="580" on="1"/>
      </contour>
      <contour>
        <pt x="331" y="-42" on="1"/>
        <pt x="287" y="-177" on="0"/>
        <pt x="177" y="-177" on="1"/>
        <pt x="169" y="-177" on="0"/>
        <pt x="142" y="-176" on="0"/>
        <pt x="115" y="-175" on="0"/>
        <pt x="92" y="-173" on="0"/>
        <pt x="87" y="-172" on="1"/>
        <pt x="97" y="-59" on="1"/>
        <pt x="121" y="-62" on="0"/>
        <pt x="146" y="-62" on="1"/>
        <pt x="186" y="-62" on="0"/>
        <pt x="199" y="-18" on="1"/>
        <pt x="204" y="0" on="1"/>
        <pt x="170" y="0" on="1"/>
        <pt x="53" y="500" on="1"/>
        <pt x="193" y="500" on="1"/>
        <pt x="256" y="111" on="1"/>
        <pt x="375" y="500" on="1"/>
        <pt x="506" y="500" on="1"/>
      </contour>
    </TTGlyph>
    <TTGlyph name="yacute" xMin="61" yMin="244" xMax="222" yMax="374">
      <contour>
        <pt x="61" y="244" on="1"/>
        <pt x="72" y="374" on="1"/>
        <pt x="222" y="374" on="1"/>
        <pt x="211" y="244" on="1"/>
      </contour>
    </TTGlyph>
    <TTGlyph name="ydieresis" xMin="61" yMin="244" xMax="222" yMax="374">
      <contour>
        <pt x="61" y="244" on="1"/>
        <pt x="72" y="374" on="1"/>
        <pt x="222" y="374" on="1"/>
        <pt x="211" y="244" on="1"/>
      </contour>
    </TTGlyph>
    <TTGlyph name="yen" xMin="61" yMin="244" xMax="222" yMax="374">
      <contour>
        <pt x="61" y="244" on="1"/>
        <pt x="72" y="374" on="1"/>
        <pt x="222" y="374" on="1"/>
        <pt x="211" y="244" on="1"/>
      </contour>
    </TTGlyph>
    <TTGlyph name="z" xMin="29" yMin="0" xMax="475" yMax="716">
      <contour>
        <pt x="190" y="107" on="1"/>
        <pt x="386" y="107" on="1"/>
        <pt x="377" y="0" on="1"/>
        <pt x="29" y="0" on="1"/>
        <pt x="38" y="111" on="1"/>
        <pt x="270" y="393" on="1"/>
        <pt x="83" y="393" on="1"/>
        <pt x="92" y="500" on="1"/>
        <pt x="430" y="500" on="1"/>
        <pt x="420" y="380" on="1"/>
      </contour>
      <contour>
        <pt x="226" y="716" on="1"/>
        <pt x="270" y="642" on="1"/>
        <pt x="326" y="716" on="1"/>
        <pt x="475" y="716" on="1"/>
        <pt x="341" y="581" on="1"/>
        <pt x="190" y="581" on="1"/>
        <pt x="82" y="716" on="1"/>
      </contour>
    </TTGlyph>
    <TTGlyph name="zcaron" xMin="61" yMin="244" xMax="222" yMax="374">
      <contour>
        <pt x="61" y="244" on="1"/>
        <pt x="72" y="374" on="1"/>
        <pt x="222" y="374" on="1"/>
        <pt x="211" y="244" on="1"/>
      </contour>
    </TTGlyph>
    <TTGlyph name="zero" xMin="75" yMin="0" xMax="555" yMax="480">
      <contour>
        <pt x="75" y="0" on="1"/>
        <pt x="75" y="480" on="1"/>
        <pt x="315" y="480" on="1"/>
        <pt x="315" y="240" on="1"/>
        <pt x="555" y="240" on="1"/>
        <pt x="555" y="0" on="1"/>
      </contour>
      <contour>
        <pt x="435" y="360" on="1"/>
        <pt x="435" y="480" on="1"/>
        <pt x="555" y="480" on="1"/>
        <pt x="555" y="360" on="1"/>
      </contour>
    </TTGlyph>
</ttFont>
